<svg xmlns="http://www.w3.org/2000/svg" viewBox="0 0 1000 1000"><defs><style>.cls-1{isolation:isolate;}.cls-2,.cls-9{fill:#a8c4e5;}.cls-2{opacity:0.4;}.cls-15,.cls-19,.cls-2{mix-blend-mode:multiply;}.cls-3{fill:#b6d1ed;}.cls-4{fill:#9dbee3;}.cls-5{fill:#fff;}.cls-6{fill:#37356c;}.cls-7{fill:#27e0c0;}.cls-8{fill:#8db0da;}.cls-10{fill:#4aa5ff;}.cls-11{fill:#d1e7ff;}.cls-12{fill:#aed0f5;}.cls-13{fill:#a7d1e8;}.cls-14{fill:#514677;}.cls-15,.cls-18,.cls-19{fill:#45446c;}.cls-15{opacity:0.29;}.cls-16{fill:#ffd22d;}.cls-17{fill:#d84177;}.cls-19{opacity:0.45;}.cls-20{fill:#f0f0fa;}.cls-21{fill:#ffaa82;}.cls-22{fill:#3f3f9e;}.cls-23{fill:#97caff;}.cls-24{fill:#3d82d1;}.cls-25{fill:#5a5ac4;}.cls-26{fill:#e1eaf4;}.cls-27{fill:#5b5b84;}.cls-28{fill:#51517a;}.cls-29{fill:#ef487c;}.cls-30{fill:#ef5d8b;}.cls-31{fill:#492817;}</style></defs><g class="cls-1"><g id="image"><ellipse class="cls-2" cx="249.76" cy="418.8" rx="81.71" ry="47.17" transform="translate(-36.11 23.77) rotate(-5.08)"></ellipse><ellipse class="cls-3" cx="205.97" cy="420.35" rx="59.6" ry="34.41" transform="matrix(1, -0.09, 0.09, 1, -36.42, 19.89)"></ellipse><polygon class="cls-3" points="111.05 345.37 147.05 428.33 265.29 419.13 284.45 334.09 111.05 345.37"></polygon><path class="cls-4" d="M250.76,335.61l-19.2,84.72h0c-.37,12.32-5.66,16.05-14.82,22.56a74.84,74.84,0,0,1-23.35,11.34c20.25,1.47,42.1-4.39,56.86-14.88,9.16-6.51,14.48-9.87,14.85-22.19h0l19.2-84.72Z"></path><ellipse class="cls-5" cx="197.6" cy="331.71" rx="88.05" ry="50.83" transform="translate(-28.6 18.8) rotate(-5.08)"></ellipse><ellipse class="cls-6" cx="196.84" cy="330.13" rx="75.58" ry="43.63" transform="translate(-28.46 18.73) rotate(-5.08)"></ellipse><path class="cls-7" d="M137.77,318.2h0c-5-5.43-9.51-11.83-9.38-19.57a14,14,0,0,1,3.58-9.34c6.27-6.71,16-3.68,22.28,1.54,5.4,4.47,9.51,10.43,15.26,14.43q-13.29-31.42-26.59-62.85c-3.4-8-6.88-16.63-3.29-25.38a12.2,12.2,0,0,1,11.86-7.8c13.25.89,13.42,23.14,25.61,28.37a167.2,167.2,0,0,1-21.92-49.82c-3.27-12.8-4.94-26.92,3.35-38.36,4.58-6.34,12.28-10,19.95-8.42,13.75,2.76,17.86,19.18,19.59,32.69l6.48,50.49c1.87-12.71,4.84-27,12.63-36.4a7.5,7.5,0,0,1,13.18,3.49,108.5,108.5,0,0,1-5.82,58.19,25.73,25.73,0,0,1,5.62-7.9,10.21,10.21,0,0,1,17.28,6.57,76.46,76.46,0,0,1-17.11,54.14l6-8.07a5,5,0,0,1,9.07,2.58,47.35,47.35,0,0,1-12.29,35.87C205.85,361.61,160.44,342.78,137.77,318.2Z"></path><path class="cls-2" d="M758.09,741.7,357.24,558.11c-16.4-7.51-16.95-22.6-1.23-33.69l100.52-70.95c15.72-11.09,41.77-14,58.17-6.48L915.54,630.58c16.41,7.51,17,22.59,1.24,33.69L816.25,735.21C800.53,746.31,774.49,749.21,758.09,741.7Z"></path><path class="cls-8" d="M860.31,378v-.05c0-.17,0-.34,0-.51s0-.35-.07-.52a.64.64,0,0,0,0-.07v-.08l-.06-.36c0-.17-.07-.34-.11-.5l-.06-.24a.43.43,0,0,0,0-.11c0-.05,0-.1,0-.16s-.09-.34-.14-.5-.09-.32-.14-.48v0h0c-.05-.17-.11-.34-.17-.51l-.18-.49a.78.78,0,0,1-.05-.14.36.36,0,0,1,0-.09l-.11-.27c-.06-.16-.13-.31-.2-.47s-.11-.24-.16-.35l0-.06,0-.05c-.07-.15-.14-.29-.22-.44l-.21-.43-.1-.17,0-.08-.09-.17-.25-.43-.26-.43,0,0,0-.06a5,5,0,0,0-.29-.45c-.09-.14-.19-.28-.29-.41a2.75,2.75,0,0,0-.19-.28l-.09-.13c-.16-.22-.33-.43-.49-.64s-.11-.15-.17-.21l0,0c-.22-.27-.45-.53-.68-.79a.94.94,0,0,0-.1-.1l-.09-.1-.24-.26c-.13-.15-.27-.29-.41-.43l-.16-.15-.09-.09-.15-.14-.41-.38-.32-.28-.06-.05,0,0-.46-.37-.47-.36h0l-.47-.33a5.39,5.39,0,0,0-.5-.33l-.06,0-.07,0-.36-.22-.5-.29-.14-.08,0,0h0l-.3-.16c-.17-.08-.33-.17-.5-.24L846.45,361l-13.37,9,3.72,1.72.49.27.5.29c.17.1.34.2.5.31l.21.14.78.54h0l.76.6.09.08c.24.2.48.4.71.62l.1.09.66.64.11.12c.22.22.42.44.63.67l.3.36.37.44c.14.17.28.35.41.53l.26.34.22.31c.13.19.26.37.38.56a1.3,1.3,0,0,1,.1.15q.25.39.48.78a.25.25,0,0,1,0,.07c.16.28.32.56.47.84l0,.09c.15.28.28.56.41.84l0,.11q.2.42.36.84a.61.61,0,0,1,0,.12c.11.28.22.57.31.85,0,0,0,.08,0,.13.09.28.18.57.26.85l0,.12q.12.44.21.87l0,.11q.09.44.15.87c0,.15,0,.29.07.44s0,.34.05.52,0,.36,0,.54,0,.36,0,.54,0,.39,0,.58,0,.3,0,.45,0,.3-.05.82L827.13,695.6c-.1,1.45-4.78,11.13-3.6,10.28l12.25-12.54a15.5,15.5,0,0,0,4.4-9.85l19.91-299.8c.1-1.45.24-3.63.24-3.63s0-.3,0-.45,0-.26,0-.39V379c0-.18,0-.36,0-.54s0-.28,0-.43Z"></path><path class="cls-5" d="M836.37,371.32c6.7,3.06,11.75,11.08,11.3,17.91l-20.59,310c-.45,6.83-6.24,9.88-12.93,6.82L321.06,480.2c-6.7-3.07-11.75-11.09-11.3-17.92l20.58-310c.46-6.83,6.24-9.88,12.93-6.82Z"></path><path class="cls-9" d="M848.33,324.82,359.61,101h0l0,0-.73-.33h0l-1.29-.59-.5-.2-.51-.18-.5-.16-.52-.14-.52-.12-.55-.1h-.09l-.47-.06h-.24l-.2,0h-.15a5.42,5.42,0,0,0-.57,0h-.05c-.23,0-.45,0-.66,0h-.08l-.29,0-.35,0-.1,0c-.16,0-.31.08-.47.12a2.27,2.27,0,0,0-.25.06l-.06,0a7.34,7.34,0,0,0-.89.33l-.06,0-.09,0a7,7,0,0,0-1.06.62l-12.86,9.19a6.26,6.26,0,0,1,1-.6l.43-.19.52-.2c.22-.07.43-.13.66-.18l.25-.06a9.25,9.25,0,0,1,.94-.13h.18a8.49,8.49,0,0,1,1,0h.07a10.74,10.74,0,0,1,1.11.12l.09,0c.36.06.74.14,1.11.24l.11,0a12.22,12.22,0,0,1,1.21.4l.5.2.39.17,2.7,1.24h0L837.27,334.84a1.74,1.74,0,0,0,1.72-.17l9.63-6.88A1.72,1.72,0,0,0,848.33,324.82ZM355.11,102.24Z"></path><path class="cls-8" d="M862.61,341.88v-.05c0-.17,0-.34-.05-.52s0-.34-.08-.51,0-.05,0-.08v-.07c0-.12,0-.24-.07-.36s-.06-.34-.1-.51l-.06-.23,0-.11a.94.94,0,0,1,0-.16c0-.17-.09-.34-.14-.51s-.09-.31-.14-.47v0h0c-.06-.17-.11-.34-.17-.51l-.18-.5-.06-.13,0-.09-.11-.27c-.06-.16-.13-.31-.2-.47l-.16-.36,0-.05,0-.05c-.07-.15-.14-.3-.22-.44s-.14-.29-.22-.43l-.09-.18,0-.07-.09-.17c-.08-.14-.16-.29-.25-.43s-.17-.29-.26-.43l0,0a.16.16,0,0,1,0-.07l-.29-.45-.29-.41-.19-.27-.09-.13c-.16-.22-.33-.43-.5-.65l-.16-.21,0,0c-.21-.27-.44-.53-.67-.79l-.1-.11-.09-.09-.24-.27-.41-.42-.17-.16-.08-.08-.15-.14-.42-.38c-.1-.1-.21-.19-.32-.28l-.05,0-.06-.05-.45-.37-.47-.36h0l-.46-.33-.5-.34-.06,0-.07-.05-.37-.23-.5-.28-.14-.08,0,0h0l-.29-.16-.51-.25-11.94-5.46-13.1,9.7s12.52,5.12,12.68,5.2l.5.27.5.29.5.31.2.14q.4.25.78.54h0l.76.6.09.08.7.61.11.1.66.64.11.12c.21.22.42.44.62.67l.31.36c.13.14.25.29.37.44s.27.35.41.53.18.22.26.34.15.21.22.31.26.37.38.56l.1.15c.16.26.33.52.48.78l0,.07c.16.28.32.56.47.84l0,.09c.14.28.28.56.41.84l0,.11c.13.28.25.55.36.84l.05.12c.11.28.21.56.31.85,0,0,0,.08,0,.13a8.34,8.34,0,0,1,.26.85.56.56,0,0,1,0,.12q.12.43.21.87a.36.36,0,0,1,0,.11c.06.29.12.58.16.87s0,.29.06.44,0,.34.06.51,0,.37,0,.55,0,.36,0,.54,0,.39,0,.58,0,.3,0,.45,0,.3-.06.81L829.42,659.49c-.09,1.45-4.77,11.13-3.59,10.28l12.25-12.54a15.63,15.63,0,0,0,4.4-9.85l19.91-299.8c.1-1.45.24-3.63.24-3.63s0-.3,0-.45,0-.26,0-.39v-.2c0-.18,0-.36,0-.54l0-.43Z"></path><path class="cls-6" d="M838.18,335.25c6.69,3.07,11.74,11.09,11.29,17.92l-20.58,310C828.44,670,822.64,673,816,670L322.86,444.13c-6.69-3.06-11.75-11.08-11.29-17.92l20.58-310c.45-6.83,6.24-9.89,12.93-6.82Z"></path><path class="cls-10" d="M823.33,356.47c6.34,2.85,11.12,9.8,10.66,15.54l-20.5,260.36c-.45,5.74-6,8.09-12.3,5.25L334,428.22c-6.34-2.84-11.11-9.79-10.66-15.53l20.5-260.37c.45-5.74,5.95-8.09,12.29-5.24Z"></path><path class="cls-5" d="M598.16,242.1c.28,2.94-1.68,4.32-4.38,3.09a10.27,10.27,0,0,1-5.4-7.57c-.27-2.94,1.69-4.32,4.39-3.08A10.25,10.25,0,0,1,598.16,242.1Z"></path><path class="cls-6" d="M821.74,726.13l-1.44-14.19-17.61,8.79-4.77-8.65L315.55,491.15c-5.81-2.66-16.87-1.21-22.88,3.06L105.07,626.63l-.3-3.16L76.2,640.92l-4.31-1.32,1.92,13.84c.75,3,2,4.12,4,5L579.88,889.09c5.81,2.66,15.53,1.71,21.54-2.57l215.7-153c3.28-2.33,4.82-5,4.6-7.44Z"></path><path class="cls-11" d="M578,871.8,76,641.89c-5.81-2.66-5.64-8.33.38-12.61L292.08,476.06c6-4.27,15.69-5.59,21.5-2.93l502,229.9c5.81,2.66,5.64,8.34-.37,12.61L599.49,868.86C593.48,873.14,583.8,874.46,578,871.8Z"></path><path class="cls-12" d="M388.07,755.75,266.58,700.11c-1.4-.64-1.36-2,.1-3.05L318.87,660a5.81,5.81,0,0,1,5.2-.71l121.49,55.64c1.4.64,1.36,2-.09,3.05L393.27,755A5.81,5.81,0,0,1,388.07,755.75Z"></path><path class="cls-6" d="M325.32,523.39a3.62,3.62,0,0,1-3.18-.07l-30.47-14c-1.1-.5-1.46-1.29-.81-1.75L309,494.75a3.69,3.69,0,0,1,3.18.07l30.47,13.95c1.1.5,1.47,1.29.81,1.76Z"></path><path class="cls-6" d="M363.55,570a3.64,3.64,0,0,1-3.19-.06l-30.47-14c-1.1-.5-1.45-1.29-.79-1.76l18.1-12.87a3.68,3.68,0,0,1,3.16.07l30.47,13.95c1.12.51,1.46,1.3.82,1.75Z"></path><path class="cls-6" d="M348.55,592.3a3.64,3.64,0,0,1-3.17-.08l-30.48-14c-1.08-.49-1.47-1.28-.81-1.75l18.11-12.87a3.65,3.65,0,0,1,3.16.08l30.48,13.95c1.1.5,1.46,1.29.82,1.74Z"></path><path class="cls-6" d="M303.07,600.61a3.66,3.66,0,0,1-3.17-.06L269.43,586.6c-1.09-.5-1.45-1.29-.8-1.75L286.73,572a3.7,3.7,0,0,1,3.17.06l30.48,14c1.09.5,1.44,1.29.79,1.75Z"></path><path class="cls-6" d="M222.44,596.52a3.67,3.67,0,0,1-3.17-.07l-30.48-14c-1.09-.5-1.46-1.29-.81-1.75l21.26-15.11a3.65,3.65,0,0,1,3.18.07l30.47,13.95c1.1.5,1.45,1.3.81,1.75Z"></path><path class="cls-6" d="M275,620.57c-.66.46-2.35.3-3.8-.36l-39.93-18.27c-1.43-.66-2.08-1.57-1.42-2l21.26-15.11c.63-.45,2.36-.3,3.79.35l39.92,18.28c1.45.66,2.07,1.58,1.44,2Z"></path><path class="cls-6" d="M537.3,740.85a3.6,3.6,0,0,1-3-.22L503.87,726.7c-1.11-.51-1.57-1.24-1-1.63l7.86-5.58a3.6,3.6,0,0,1,3,.22l30.45,13.94c1.1.5,1.54,1.23,1,1.61Z"></path><path class="cls-6" d="M578.07,760.06a3.59,3.59,0,0,1-3-.21l-30.45-13.94c-1.11-.51-1.57-1.23-1-1.62l7.86-5.59a3.65,3.65,0,0,1,3,.23l30.45,13.94c1.1.5,1.55,1.22,1,1.61Z"></path><path class="cls-6" d="M621.18,779.29a3.6,3.6,0,0,1-2.94-.24l-30.46-13.94c-1.09-.5-1.58-1.22-1.06-1.6l7.57-5.38a3.64,3.64,0,0,1,3,.25l30.47,13.94c1.09.5,1.56,1.22,1,1.59Z"></path><path class="cls-6" d="M593,749.76a3.55,3.55,0,0,1-3-.24l-30.46-13.94c-1.09-.5-1.58-1.22-1.06-1.59l7.57-5.38a3.65,3.65,0,0,1,3,.24l30.46,13.94c1.1.51,1.56,1.22,1.05,1.59Z"></path><path class="cls-6" d="M484.61,716.51a3.65,3.65,0,0,1-3.19-.08L283.11,625.66c-1.08-.5-1.46-1.29-.81-1.76l21.26-15.11a3.73,3.73,0,0,1,3.18.08L505,699.64c1.1.51,1.46,1.31.82,1.76Z"></path><path class="cls-6" d="M463.79,701.88a12.75,12.75,0,0,1-1.67-.68L304.29,629a9.35,9.35,0,0,1-1.51-.78l1.32-.94a11,11,0,0,1,1.66.67l157.83,72.25a8.77,8.77,0,0,1,1.52.79Z"></path><path class="cls-6" d="M269.15,613.89s-.18,0-.31-.06l-23.29-10.66c-.13-.06-.2-.13-.16-.16l1.32-.94s.18,0,.31.06l23.29,10.66c.13.06.2.13.16.16Z"></path><path class="cls-6" d="M209.19,584.11a.17.17,0,0,1-.17,0l-9.89-4.52s-.07-.07,0-.1l1.32-.94a.2.2,0,0,1,.17,0l9.89,4.53s.06.07,0,.1Z"></path><path class="cls-6" d="M344.84,619.72a3.69,3.69,0,0,1-3.18-.07L311.19,605.7c-1.08-.5-1.46-1.3-.81-1.76l18.1-12.87a3.75,3.75,0,0,1,3.19.07l30.47,14c1.1.51,1.46,1.3.81,1.76Z"></path><path class="cls-6" d="M386.8,638.93a3.74,3.74,0,0,1-3.17-.07l-30.47-14c-1.09-.5-1.46-1.29-.81-1.75l18.1-12.87a3.68,3.68,0,0,1,3.19.07l30.47,13.94c1.08.5,1.44,1.29.79,1.76Z"></path><path class="cls-6" d="M428.76,658.13a3.7,3.7,0,0,1-3.17-.06l-30.47-14c-1.09-.5-1.45-1.29-.8-1.75l18.1-12.87a3.66,3.66,0,0,1,3.17.06l30.48,14c1.09.5,1.44,1.29.79,1.75Z"></path><path class="cls-6" d="M470.72,677.34a3.63,3.63,0,0,1-3.17-.07l-30.47-13.95c-1.1-.5-1.46-1.29-.82-1.75l18.11-12.87a3.65,3.65,0,0,1,3.18.07l30.48,14c1.09.5,1.45,1.29.8,1.75Z"></path><path class="cls-6" d="M512.69,696.55a3.68,3.68,0,0,1-3.19-.08L479,682.53c-1.09-.5-1.44-1.29-.8-1.75l18.11-12.87a3.7,3.7,0,0,1,3.17.06L530,681.92c1.1.5,1.47,1.3.82,1.76Z"></path><path class="cls-6" d="M554.65,715.74a3.67,3.67,0,0,1-3.17-.07L521,701.73c-1.1-.51-1.46-1.3-.82-1.76L538.3,687.1a3.69,3.69,0,0,1,3.18.07l30.47,14c1.09.5,1.45,1.29.8,1.75Z"></path><path class="cls-6" d="M649.16,759a3.67,3.67,0,0,1-3.17-.07l-83-38c-1.09-.5-1.45-1.29-.81-1.75l18.11-12.87a3.69,3.69,0,0,1,3.18.07l83,38c1.1.51,1.45,1.3.81,1.76Z"></path><path class="cls-6" d="M390.3,611.39a3.58,3.58,0,0,1-3.15-.06l-30.48-14c-1.1-.5-1.46-1.28-.81-1.74L374,582.76a3.64,3.64,0,0,1,3.16.07l30.48,13.95c1.1.5,1.44,1.29.8,1.74Z"></path><path class="cls-6" d="M432.27,630.61a3.68,3.68,0,0,1-3.16-.07l-30.49-14c-1.08-.5-1.45-1.28-.79-1.74L415.94,602a3.69,3.69,0,0,1,3.15.07l30.48,14c1.09.5,1.45,1.29.81,1.74Z"></path><path class="cls-6" d="M474.23,649.81a3.63,3.63,0,0,1-3.17-.07l-30.47-14c-1.08-.49-1.47-1.28-.82-1.75l18.11-12.87a3.69,3.69,0,0,1,3.18.08l30.47,13.94c1.08.5,1.45,1.3.81,1.75Z"></path><path class="cls-6" d="M516.19,669A3.63,3.63,0,0,1,513,669l-30.47-14c-1.09-.5-1.46-1.28-.81-1.75l18.11-12.87a3.67,3.67,0,0,1,3.17.07l30.46,13.95c1.1.5,1.46,1.29.82,1.75Z"></path><path class="cls-6" d="M558.16,688.22a3.68,3.68,0,0,1-3.16-.07l-30.49-14c-1.1-.5-1.46-1.28-.8-1.75l18.11-12.87a3.68,3.68,0,0,1,3.16.07l30.48,14c1.09.5,1.45,1.29.81,1.74Z"></path><path class="cls-6" d="M600.11,707.42a3.65,3.65,0,0,1-3.16-.07l-30.46-14c-1.11-.5-1.48-1.28-.82-1.75l18.1-12.87a3.66,3.66,0,0,1,3.18.08l30.46,13.94c1.1.5,1.45,1.29.81,1.75Z"></path><path class="cls-6" d="M642.07,726.63a3.65,3.65,0,0,1-3.16-.07l-30.49-14c-1.08-.5-1.45-1.27-.79-1.74L625.74,698a3.62,3.62,0,0,1,3.15.07l30.48,14c1.09.5,1.45,1.29.81,1.74Z"></path><path class="cls-6" d="M405.31,589.12a3.65,3.65,0,0,1-3.18-.06l-30.48-13.95c-1.08-.5-1.44-1.28-.78-1.75L389,560.49a3.62,3.62,0,0,1,3.15.07l30.47,14c1.1.5,1.46,1.29.82,1.74Z"></path><path class="cls-6" d="M447.26,608.33a3.66,3.66,0,0,1-3.17-.06l-30.47-13.95c-1.1-.5-1.46-1.29-.8-1.76l18.1-12.87a3.67,3.67,0,0,1,3.17.07l30.47,14c1.09.5,1.45,1.29.81,1.75Z"></path><path class="cls-6" d="M489.23,627.54a3.64,3.64,0,0,1-3.19-.07l-30.47-14c-1.09-.49-1.45-1.28-.79-1.75l18.11-12.87A3.62,3.62,0,0,1,476,599l30.47,13.95c1.11.5,1.47,1.29.82,1.75Z"></path><path class="cls-6" d="M531.18,646.74a3.59,3.59,0,0,1-3.17-.06l-30.48-13.95c-1.1-.5-1.46-1.29-.8-1.76l18.11-12.87a3.68,3.68,0,0,1,3.16.08l30.48,14c1.1.5,1.45,1.28.8,1.74Z"></path><path class="cls-6" d="M573.15,665.94a3.66,3.66,0,0,1-3.17-.06l-30.47-14c-1.11-.51-1.46-1.29-.8-1.76l18.11-12.87a3.65,3.65,0,0,1,3.16.08l30.48,14c1.08.49,1.44,1.28.79,1.74Z"></path><path class="cls-6" d="M615.12,685.15a3.66,3.66,0,0,1-3.2-.07l-30.47-14c-1.08-.49-1.45-1.28-.79-1.75l18.11-12.87a3.65,3.65,0,0,1,3.16.07l30.47,13.95c1.11.5,1.47,1.29.82,1.75Z"></path><path class="cls-6" d="M657.07,704.35a3.65,3.65,0,0,1-3.18-.06l-30.47-13.95c-1.1-.5-1.46-1.29-.8-1.76l18.11-12.87a3.65,3.65,0,0,1,3.16.08l30.48,14c1.09.5,1.45,1.28.8,1.74Z"></path><path class="cls-6" d="M321.59,550.82a3.68,3.68,0,0,1-3.19-.07L266.73,527.1c-1.1-.5-1.46-1.29-.8-1.76L284,512.47a3.67,3.67,0,0,1,3.17.07l51.67,23.66c1.1.5,1.46,1.29.81,1.75Z"></path><path class="cls-6" d="M724,705.84a3.69,3.69,0,0,1-3.18-.07l-51.67-23.65c-1.08-.5-1.46-1.29-.8-1.75l18.1-12.87a3.63,3.63,0,0,1,3.17.07l51.67,23.65c1.1.5,1.46,1.29.81,1.75Z"></path><path class="cls-6" d="M306.58,573.09a3.64,3.64,0,0,1-3.17-.08l-61.6-28.2c-1.1-.5-1.47-1.28-.81-1.75l18.11-12.87a3.65,3.65,0,0,1,3.16.08l61.6,28.2c1.11.5,1.46,1.29.82,1.74Z"></path><path class="cls-6" d="M261.12,581.41a3.67,3.67,0,0,1-3.17-.07l-41.07-18.8c-1.1-.5-1.46-1.29-.82-1.75l18.11-12.87a3.65,3.65,0,0,1,3.18.07l41.07,18.8c1.1.5,1.46,1.29.81,1.75Z"></path><path class="cls-6" d="M367.27,542.6a3.66,3.66,0,0,1-3.18-.08l-30.46-13.94c-1.09-.5-1.46-1.29-.8-1.75L350.93,514a3.69,3.69,0,0,1,3.18.07L384.56,528c1.11.51,1.47,1.29.81,1.76Z"></path><path class="cls-6" d="M409,561.7a3.65,3.65,0,0,1-3.18-.07l-30.47-14c-1.09-.5-1.46-1.29-.81-1.75l18.1-12.87a3.66,3.66,0,0,1,3.18.07l30.47,14c1.1.5,1.47,1.29.81,1.75Z"></path><path class="cls-6" d="M451,580.9a3.66,3.66,0,0,1-3.17-.06l-30.47-14c-1.09-.5-1.46-1.29-.8-1.75l18.1-12.87a3.66,3.66,0,0,1,3.17.06l30.47,13.95c1.1.51,1.45,1.29.8,1.75Z"></path><path class="cls-6" d="M493,600.11a3.65,3.65,0,0,1-3.18-.06L459.33,586.1c-1.11-.5-1.47-1.29-.81-1.75l18.1-12.87a3.65,3.65,0,0,1,3.18.07l30.45,13.94c1.1.5,1.47,1.29.81,1.76Z"></path><path class="cls-6" d="M534.9,619.32a3.61,3.61,0,0,1-3.16-.07l-30.47-13.94c-1.1-.51-1.46-1.3-.81-1.76l18.1-12.87a3.71,3.71,0,0,1,3.19.07l30.46,14c1.11.51,1.45,1.28.79,1.75Z"></path><path class="cls-6" d="M576.89,638.51a3.63,3.63,0,0,1-3.17-.06l-30.49-14c-1.09-.5-1.44-1.29-.79-1.75l18.1-12.87a3.64,3.64,0,0,1,3.16.06l30.49,14c1.08.49,1.45,1.28.8,1.75Z"></path><path class="cls-6" d="M618.85,657.72a3.62,3.62,0,0,1-3.18-.07L585.2,643.71c-1.1-.51-1.47-1.3-.82-1.76l18.1-12.87a3.68,3.68,0,0,1,3.19.07l30.47,14c1.1.5,1.46,1.29.81,1.76Z"></path><path class="cls-6" d="M660.79,676.92a3.61,3.61,0,0,1-3.16-.06l-30.49-14c-1.08-.5-1.44-1.29-.79-1.75l18.1-12.87a3.68,3.68,0,0,1,3.16.06l30.5,14c1.08.5,1.44,1.28.78,1.75Z"></path><path class="cls-6" d="M685.84,695a4.4,4.4,0,0,0-1.74-.39,2.4,2.4,0,0,0-1.41.32l-18.1,12.88a.64.64,0,0,0-.27.86,2.17,2.17,0,0,0,1,.89l8,3.64-23.74,16.88a.64.64,0,0,0-.25.86,2.09,2.09,0,0,0,1.06.88l20.53,9.4a4.59,4.59,0,0,0,1.76.41,2.43,2.43,0,0,0,1.42-.33l43-30.6a.64.64,0,0,0,.25-.86,2.13,2.13,0,0,0-1.07-.89Z"></path><path class="cls-6" d="M255.06,572.57s-.18,0-.31-.06l-23.29-10.66c-.13-.06-.2-.13-.16-.16l1.32-.94s.18,0,.31.06l23.29,10.66c.13.06.2.13.16.16Z"></path><polygon class="cls-13" points="369.42 626.41 337.22 607.76 342.48 598.91 374.68 617.56 369.42 626.41"></polygon><path class="cls-14" d="M737.15,379.85l-.52-.85a1.06,1.06,0,0,1,.35-1.43h0a1,1,0,0,1,1.42.35l.52.86a1,1,0,0,1-.35,1.42h0A1,1,0,0,1,737.15,379.85Z"></path><path class="cls-15" d="M197.16,697.74l260,119.48S708,657.33,713,365.45c1.46-85.36-51.74-9.7-80.05-14.57-41.77-7.2-70.65-14.73-70.65-14.73Z"></path><path class="cls-5" d="M707.57,323.71,470.12,218.27c-4.48-2-8.55.83-9.09,6.3-25.72,151.69-21.54,260-276.46,460.66L437.86,803C534.48,724,709,551.94,714.71,337.21,715.25,331.75,712.05,325.7,707.57,323.71Z"></path><path class="cls-16" d="M686.63,392.42,604,352.64c-2.59-1.24-4.17-4.89-3.53-8.14h0c.64-3.26,3.25-4.89,5.84-3.64l82.67,39.78c2.58,1.24,4.16,4.89,3.52,8.14h0C691.82,392,689.21,393.66,686.63,392.42Z"></path><path class="cls-16" d="M576.36,619.82l-83.06-39c-2.6-1.22-4.21-4.85-3.6-8.11h0c.6-3.25,3.2-4.91,5.79-3.69l83.07,39c2.59,1.21,4.2,4.84,3.6,8.1h0C581.55,619.38,579,621,576.36,619.82Z"></path><path class="cls-17" d="M467.09,567.92,384,529c-2.6-1.22-4.21-4.85-3.6-8.11h0c.6-3.26,3.2-4.91,5.79-3.7l83.06,39c2.6,1.22,4.21,4.85,3.61,8.11h0C472.28,567.48,469.69,569.13,467.09,567.92Z"></path><polygon class="cls-13" points="686.01 421.67 593.98 377.38 596.29 365.6 688.32 409.89 686.01 421.67"></polygon><polygon class="cls-13" points="560.25 361.15 468.22 316.87 470.54 305.09 562.56 349.37 560.25 361.15"></polygon><polygon class="cls-13" points="680.72 448.67 588.69 404.38 591 392.6 683.03 436.88 680.72 448.67"></polygon><polygon class="cls-13" points="554.96 388.15 462.93 343.87 465.24 332.09 557.27 376.37 554.96 388.15"></polygon><polygon class="cls-13" points="542.96 435.2 450.94 390.91 453.25 379.13 545.27 423.42 542.96 435.2"></polygon><polygon class="cls-13" points="495.87 387.65 457.93 369.39 460.24 357.61 498.18 375.87 495.87 387.65"></polygon><polygon class="cls-13" points="481.46 431.95 443.52 413.69 445.83 401.91 483.77 420.17 481.46 431.95"></polygon><polygon class="cls-13" points="491 491.72 432.05 463.35 435.99 452.26 494.94 480.63 491 491.72"></polygon><polygon class="cls-13" points="478.87 518.61 419.92 490.24 423.87 479.16 482.82 507.52 478.87 518.61"></polygon><polygon class="cls-13" points="548 410.58 510.06 392.32 512.37 380.54 550.31 398.8 548 410.58"></polygon><polygon class="cls-13" points="562.28 336.15 524.34 317.89 526.65 306.11 564.59 324.37 562.28 336.15"></polygon><polygon class="cls-13" points="621.63 448.17 583.68 429.91 585.99 418.13 623.94 436.38 621.63 448.17"></polygon><polygon class="cls-13" points="449.57 594.49 359.22 549.66 365.02 539.55 455.38 584.38 449.57 594.49"></polygon><polygon class="cls-13" points="436.28 617.65 345.92 572.83 351.72 562.72 442.08 607.54 436.28 617.65"></polygon><path class="cls-18" d="M522.54,269.06a37.37,37.37,0,0,0-1.4,4.86L520,279.38l-.34.2-1.74-.79-.25-.43a45.24,45.24,0,0,0,.72-5.06,2.84,2.84,0,0,0-1.45-2.35c-.36-.23-2.08-1.05-5.18-2.45l-3.7-1.67c-.2.74-.85,3.78-1.94,9.1l-3.86,18.64a85.4,85.4,0,0,0-1.74,10.34,1.86,1.86,0,0,0,.69,1.64,31.12,31.12,0,0,0,3.16,1.8l.21.45-.45,2.2-.35.2q-2.7-1.43-8.47-4.05-5.92-2.67-8.56-3.66l-.18-.4.46-2.24.34-.2a30.68,30.68,0,0,0,3.3,1.14,1.06,1.06,0,0,0,1.19-.79,82.24,82.24,0,0,0,2.47-10l3.85-18.64q1.68-8.11,1.8-9.17L496,261.38q-5-2.24-5.85-2.25a1,1,0,0,0-.71.21,6.64,6.64,0,0,0-.85,1.92c-.37,1.1-.7,2.25-1,3.46l-.34.21-1.74-.79-.24-.47,1.11-5.64a46.59,46.59,0,0,0,.67-5l.32-.21q1.56,1.07,11.82,5.71l11.2,5.06q9.45,4.29,12,5.06Z"></path><path class="cls-19" d="M653.77,505.54,543.71,452.61c-3.12-1.51-8.71,1.27-10,5l-26.58,77c-1.09,3.14-.12,5.84,2.53,7.12l11.76,5.66-.06,0,92.07,44.28v-.07l6.89,3.31c2.82,1.36,7.86-1.15,9-4.48l26.9-77.91C657.31,509.44,656.37,506.79,653.77,505.54Z"></path><path class="cls-20" d="M609.06,597.46,498.41,544.23c-2.66-1.27-3.62-4-2.54-7.12l26.59-77c1.27-3.7,6.85-6.47,10-5L642.5,508.09c2.6,1.25,3.54,3.9,2.48,7L618.08,593C616.93,596.3,611.89,598.81,609.06,597.46Z"></path><path class="cls-7" d="M510.11,549.93l24.23-18.38c5.72-4.34,13-4,13.91.61l5.9,30.76,28.06-25.28c5.88-5.3,14.49-5.15,15,.25l5,56.32Z"></path><path class="cls-16" d="M559.93,496.94c-1.88,5.43-6.67,8.26-10.7,6.32s-5.79-7.91-3.91-13.34,6.66-8.26,10.7-6.32S561.8,491.51,559.93,496.94Z"></path><circle class="cls-6" cx="264.16" cy="407.06" r="10.05" transform="translate(-217.57 348.61) rotate(-50.1)"></circle><circle class="cls-6" cx="270.23" cy="395.39" r="10.05" transform="translate(-206.44 349.09) rotate(-50.1)"></circle><circle class="cls-6" cx="254.17" cy="386.82" r="10.05" transform="translate(-152 164.87) rotate(-28.04)"></circle><path class="cls-21" d="M194.17,520.16A50,50,0,0,0,207,534.54a34.37,34.37,0,0,0,14.34,6,72.58,72.58,0,0,0,18.68.65c8.22-.67,16.39-2,24.53-3.3,11.58-1.87,23.13-3.87,34.72-5.63,2-.31,4.29-2.36,5.28-4.06a8.83,8.83,0,0,0-3.17-12.08l-2.11-.89a8.89,8.89,0,0,0-4.69,0c-13,2-26,4.28-38.95,6.32-2.9.45-5.8.88-8.7,1.27l2.34-.31c-7.87,1.05-16,2-23.92,1l2.35.31a32.6,32.6,0,0,1-8.24-2.15l2.11.89a27.4,27.4,0,0,1-6-3.51l1.79,1.38a34.31,34.31,0,0,1-6.07-6.21l1.38,1.78a54.32,54.32,0,0,1-3.24-4.74c-2.41-3.94-8-5.79-12.08-3.17s-5.75,7.86-3.16,12.08Z"></path><ellipse class="cls-2" cx="273.62" cy="857.94" rx="73.96" ry="42.7" transform="translate(-74.91 27.6) rotate(-5.08)"></ellipse><path class="cls-21" d="M358.11,561.47l-5.46-3.56A9.12,9.12,0,0,1,350,545.32h0a9.12,9.12,0,0,1,12.59-2.64l5.45,3.56a9.11,9.11,0,0,1,2.65,12.59h0A9.13,9.13,0,0,1,358.11,561.47Z"></path><path class="cls-6" d="M255.69,846.36c-.49.52-8.09,5.28-8.55,5.76-.71.74-2.83,2.8-4.12,3.93-2.71,2.38-8.11,11-18.69,6.27-15.48-6.84,17.39-33.58,17.39-33.58l14.76-9.56a6.78,6.78,0,0,1,6.14-.58h0a7.1,7.1,0,0,1,4,9.44C263.82,834.22,264,837.66,255.69,846.36Z"></path><path class="cls-5" d="M253.62,842.12c-.49.52-8.09,5.28-8.55,5.76-.71.74-2.83,2.81-4.12,3.93-2.71,2.38-8.12,11-18.69,6.28-15.48-6.85,17.39-33.59,17.39-33.59l14.76-9.56a6.79,6.79,0,0,1,6.13-.58h0a7.1,7.1,0,0,1,4,9.44C261.74,830,261.88,833.42,253.62,842.12Z"></path><path class="cls-6" d="M313.59,874.69c-.58.41-9,3.55-9.53,3.93-.84.59-3.33,2.18-4.82,3-3.13,1.78-10.15,9.1-19.57,2.4-13.79-9.81,23.77-29.42,23.77-29.42l16.37-6.41a6.8,6.8,0,0,1,6.13.66h0A7.1,7.1,0,0,1,328,858.94C324,864.43,323.42,867.82,313.59,874.69Z"></path><path class="cls-5" d="M312.41,870.12c-.58.41-9,3.55-9.53,3.93-.84.59-3.33,2.18-4.82,3-3.13,1.79-10.15,9.1-19.57,2.4-13.79-9.81,23.77-29.42,23.77-29.42l16.37-6.41a6.8,6.8,0,0,1,6.13.66h0a7.1,7.1,0,0,1,2.06,10.06C322.8,859.86,322.24,863.25,312.41,870.12Z"></path><path class="cls-22" d="M249.72,671a188.07,188.07,0,0,1,7.54,19.46q1.65,5.1,3.07,10.27c.42,1.52.83,3,1.22,4.58l.66,2.64c.2.82.7,3,.26,1.06a377,377,0,0,1,7,43.42c2.75,25.85,3.36,51.83,3.94,77.8.2,9.18.22,18.46,1.33,27.59.87,7.11,7.46,13.41,15,12.36,7.2-1,13.3-7.31,12.37-14.94-2.42-19.71-1.45-40-2.18-59.79-1.07-28.7-3.3-57.54-9.33-85.67-3.56-16.62-8.12-33-15.15-48.52-3.05-6.75-10.46-10.7-17.69-8-6.61,2.51-11,10.92-8,17.7Z"></path><path class="cls-22" d="M191.88,645.43c6.49,17,10.85,34.57,14.33,51.07,1.88,8.91,3.59,17.85,5.26,26.8,1.1,5.92,2.78,12,3.19,18,.54,7.89,0,16-.15,23.85-.22,12.29-.46,24.59-.54,36.88-.07,11.07-.4,22.31.75,33.33.75,7.14,7.56,13.41,14.95,12.37s13.17-7.3,12.37-14.94c-2.28-21.86-.68-44.43-.29-66.36.16-8.81.53-17.67.27-26.48-.14-4.74-1.42-9.44-2.28-14.1-1.68-9.11-3.39-18.23-5.25-27.31-4.35-21.25-9.2-42.6-17-62.89a13.72,13.72,0,1,0-25.65,9.74Z"></path><path class="cls-23" d="M298.62,853.71c-5.31,5.6-17.38,6-22.49,0,.26,3.54.58,7.07,1,10.58,1.7,14.32,24.05,12.27,22.34-2.11Q299,858,298.62,853.71Z"></path><path class="cls-22" d="M217.67,679.43h0c2.78,2.59-9.35-10.14-5.92-8.49,7.14,3.45,47.49,25.63,55.39,25,9.55-.74,3.12-9.43,9.62-16.47,6.16-6.68,6.82-16.64,6.62-25.72-.05-2.51-.17-5.13-1.39-7.33-1.31-2.37-3.7-3.92-6-5.34-18.05-11.16-54.16-39.59-76.75-27.28C173.15,628.05,204.32,667,217.67,679.43Z"></path><path class="cls-10" d="M178.85,479.49c-4.38,6.9-3.41,10.82-2.34,19.58a19.68,19.68,0,0,0,16,17l86.67,15.71s1.79-32.94-15.79-41.14c-9.47-4.42-24.18-11.54-35.74-17.16C210.71,465.19,189,463.55,178.85,479.49Z"></path><path class="cls-21" d="M217.25,474.76l4.14-32.5L242,453.49,238.92,483C238.8,487.78,216.87,485.7,217.25,474.76Z"></path><path class="cls-21" d="M231.2,394.62s-18.53-15-21.08,18a57.74,57.74,0,0,0,28.94,54.15c11.33,6.42,26.18.3,27.64-11.09,4-16.48,5.15-32.06.64-45.87,1.76-13.73-8.08-9.51-24.4-11.57Z"></path><path class="cls-6" d="M215.46,457.88s-22-10-17.53-41.57c4.77-34.17,36.14-28.95,53.81-29.38,7.83-.19,13.31-.92,20.76,6.75,6.78,7-1,21-11.48,21.19-4.14.07-5.91,11.62-7,15.37-2,6.66-7.48,8.49-9.51,14.93-1.92,6.1-7.84,16-13.84,16.29C220,461.92,215.46,457.88,215.46,457.88Z"></path><path class="cls-10" d="M188.8,632.53c-5.57-1.57-13-94.07-13-145.55l99.32,36.25c3.62,43.48,1.37,78.27,11.56,130.71Z"></path><path class="cls-10" d="M255.88,666.38c-24.29-6.35-47.55-13.61-62.21-28.49-6.81-3.12-6.61-9.76.44-14.77h0c7-5,18.38-6.55,25.18-3.44l62.21,28.5c6.81,3.11,6.61,9.76-.44,14.77h0C274,668,262.68,669.5,255.88,666.38Z"></path><path class="cls-24" d="M275.13,523.23l-16.37-6c3.35,42.4,1.38,76.89,11.39,128.39l-.27-.06c.39,2.93-1.41,6.26-5.36,9.07h0c-7,5-18.38,6.55-25.19,3.43-11.66-3.05-23.07-6.32-33.42-10.53,13.91,8.71,31.64,14,50,18.82,6.8,3.12,18.14,1.57,25.18-3.43h0c4-2.81,5.75-6.14,5.37-9.07l.26.06C276.5,601.5,278.75,566.71,275.13,523.23Z"></path><path class="cls-25" d="M270.05,852.08l1.18,9.87a2,2,0,0,0,.51,1.13,18.13,18.13,0,0,0,18.7,5.2c9.22-2.54,14-6,15.79-7.53a2.07,2.07,0,0,0,.67-2l-1.87-10a2.07,2.07,0,0,0-3.24-1.32c-4.52,3.27-14.73,8.46-28.82,2.45A2.08,2.08,0,0,0,270.05,852.08Z"></path><path class="cls-23" d="M239.23,829.76c-5.32,5.61-17.38,6-22.5.06.26,3.53.58,7.06,1,10.58,1.7,14.32,24.05,12.26,22.34-2.11Q239.58,834,239.23,829.76Z"></path><path class="cls-25" d="M210.66,828.13l1.18,9.87a2,2,0,0,0,.51,1.13,18.1,18.1,0,0,0,18.7,5.2c9.22-2.54,14-6,15.79-7.53a2,2,0,0,0,.67-1.95l-1.87-10a2.07,2.07,0,0,0-3.24-1.32c-4.52,3.27-14.73,8.47-28.83,2.45A2.08,2.08,0,0,0,210.66,828.13Z"></path><path class="cls-5" d="M251.82,485.08c-22.11-1.22-35.55,13.88-43.72-17h0a7,7,0,0,1,9.61,1.17c4.25,5,12.54,7.72,21.23,5.81a6.94,6.94,0,0,1,6.94,2.49Z"></path><path class="cls-21" d="M249.76,437.56c.65,4.91-1.67,9.27-5.19,9.74a4.35,4.35,0,0,1-1.14,0c-3.08-.34-5.83-3.68-6.42-8.05-.65-4.91,1.67-9.27,5.19-9.74S249.1,432.65,249.76,437.56Z"></path><polygon class="cls-26" points="432.58 676.6 480.1 695.39 463.62 650.13 432.58 676.6"></polygon><path class="cls-18" d="M466.13,689.86l14,5.53-5.7-15.64C475.75,687.58,472.78,690.73,466.13,689.86Z"></path><circle class="cls-27" cx="443.65" cy="658.14" r="21.52" transform="translate(-147.99 129.05) rotate(-14.21)"></circle><polygon class="cls-27" points="453.27 638.89 293.81 496.56 270.57 532.72 405.5 652.37 453.27 638.89"></polygon><path class="cls-28" d="M445.91,661.72a21.32,21.32,0,0,1-4.18-3.31l-.06.08L300.4,531.18l-21,9.56,149,132.1.06-.07a21.43,21.43,0,0,0,30.67-.14Z"></path><path class="cls-21" d="M326.54,533.09l-1.65,8c-1.05,5.11,2.86,10.76,8.68,12.54h0c5.83,1.78,11.45-.95,12.5-6.07l1.65-8c1-5.12-2.86-10.76-8.69-12.54h0C333.21,525.25,327.59,528,326.54,533.09Z"></path><path class="cls-21" d="M258.37,514.67c1.13,6.62,2.37,13.24,4.09,19.74a113.57,113.57,0,0,0,5.73,16.22c4.47,10.23,10.76,19.59,16.58,29.07,2.91,4.74,5.87,9.56,9.88,13.48,3.18,3.12,7.18,5.92,11.58,7a20,20,0,0,0,14.22-1.94c4.33-2.31,7.63-6.18,10.39-10.13a73.43,73.43,0,0,0,7.77-15.65A157.17,157.17,0,0,0,344.74,552q.72-3.07,1.38-6.17a9.42,9.42,0,0,0-.89-6.8,9,9,0,0,0-5.28-4c-4.43-1-9.83,1.33-10.85,6.16a162.9,162.9,0,0,1-8.56,29.14l.89-2.11a56,56,0,0,1-6.77,12.24l1.38-1.79a24.09,24.09,0,0,1-4.16,4.28l1.79-1.38a14.86,14.86,0,0,1-3.13,1.88l2.11-.89a11.94,11.94,0,0,1-2.75.76l2.34-.32a10.52,10.52,0,0,1-2.63,0l2.35.32a12.55,12.55,0,0,1-2.95-.82l2.11.89a17.18,17.18,0,0,1-3.7-2.23l1.78,1.38a31.55,31.55,0,0,1-5.32-5.51l1.38,1.79c-3.81-5-6.85-10.61-10.14-15.94-2.95-4.81-5.91-9.62-8.54-14.62-1.31-2.48-2.52-5-3.61-7.6l.89,2.11c-4.38-10.45-6.57-21.65-8.47-32.77-.35-2.05-2.32-4.26-4.05-5.27a8.84,8.84,0,0,0-12.08,3.16,10.05,10.05,0,0,0-.89,6.8Z"></path><path class="cls-10" d="M249.24,513.77c9.56,44.44,26.42,71.69,47.43,84.38,10.86,4.74,19-12.47,14.11-21.93-21.19-15.54-30.61-42-35.39-72.76-3.15-6-10.74-8.75-17.54-6.27h0C250.75,499.77,247,507.09,249.24,513.77Z"></path><path class="cls-26" d="M301.53,503.21v0l-9.52-8.3-4,6.38a25.56,25.56,0,0,0-12.73,10.19,25.08,25.08,0,0,0-4.38,16.9l-1.77,2.8,4.81,4.88.17-.1a12.06,12.06,0,0,0,2.54,2.29c7.35,4.89,18.64.84,25.23-9.06C308.12,519.77,307.86,508.5,301.53,503.21Z"></path><path class="cls-29" d="M293.51,496c-.18-.12-.37-.21-.55-.31l0,0-10.16-8-6.26,9.3a27.82,27.82,0,0,0-12.5,18.56l-5.26,7.81,9.47,7.41a12.09,12.09,0,0,0,1.38,1.07c7.34,4.89,18.64.84,25.22-9.06S300.85,500.88,293.51,496Z"></path><ellipse class="cls-30" cx="271.42" cy="505.91" rx="21.52" ry="15.97" transform="translate(-300.11 451.44) rotate(-56.34)"></ellipse><path class="cls-21" d="M274.68,442.57h0a2,2,0,0,1-.93,1.52,13.39,13.39,0,0,1-4.55,2.49,2.92,2.92,0,0,1-2.42,0,2.83,2.83,0,0,1-1.06-2.31c-.17-2.34.5-6.43,3.22-7.15,1.12-.29-.13-8,.13-6.94C270.1,434.53,273,440,274.68,442.57Z"></path><path class="cls-31" d="M263.34,433.42c0,1.62.68,2.94,1.58,3s1.67-1.28,1.7-2.9-.68-3-1.58-3S263.37,431.8,263.34,433.42Z"></path><path class="cls-18" d="M261.54,429.28c1.63-1.2,4.07-2.59,6.17-2.25a1.3,1.3,0,0,0,.45-2.56c-2.82-.46-5.92,1.07-8.14,2.7-1.34,1,.17,3.11,1.52,2.11Z"></path><path class="cls-18" d="M264.94,453.1a7.12,7.12,0,0,1-6.78-2.87c-1-1.34-3.11.17-2.11,1.52a9.75,9.75,0,0,0,9.14,3.94c1.65-.21,1.42-2.8-.25-2.59Z"></path><path class="cls-5" d="M314.53,576.31c.26,7.14-.67,22.63-13.16,25.82a6.56,6.56,0,0,1-5.39-1l-3.17-2.26a6.63,6.63,0,0,1-1.15-9.77A62.81,62.81,0,0,0,301.73,574a6.67,6.67,0,0,1,9.58-3.09l.05,0A6.6,6.6,0,0,1,314.53,576.31Z"></path><path class="cls-5" d="M323.2,859.69c.94-1.44,2.46-4.21,3.69-5.88,2.3-3.16,1.13-7.41-2.26-9.59a6.66,6.66,0,0,0-6-.65l-7.87,3.08C315,848.7,319.66,853.11,323.2,859.69Z"></path><path class="cls-5" d="M262.36,829.54c.64-1.6,1.57-4.61,2.43-6.5,1.63-3.54-.37-7.47-4.12-8.92a6.64,6.64,0,0,0-6,.57l-7.08,4.58C252.1,820.43,257.58,823.81,262.36,829.54Z"></path></g></g></svg>