 <svg
          xmlns="http://www.w3.org/2000/svg"
          width="500"
          zoomAndPan="magnify"
          viewBox="0 0 375 374.999991"
          height="500"
          preserveAspectRatio="xMidYMid meet"
          version="1.0"
        >
          <defs>
            <g />
            <clipPath id="id1">
              <path
                d="M 48.941406 48.941406 L 325.691406 48.941406 L 325.691406 325.691406 L 48.941406 325.691406 Z M 48.941406 48.941406 "
                clipRule="nonzero"
              />
            </clipPath>
            <clipPath id="id2">
              <path
                d="M 112.875 111.582031 L 261.765625 111.582031 L 261.765625 263.082031 L 112.875 263.082031 Z M 112.875 111.582031 "
                clipRule="nonzero"
              />
            </clipPath>
          </defs>
          <g clipPath="url(#id1)">
            <path
              fill="#000000"
              d="M 187.316406 325.691406 C 111.039062 325.691406 48.941406 263.59375 48.941406 187.316406 C 48.941406 111.039062 111.039062 48.941406 187.316406 48.941406 C 263.59375 48.941406 325.691406 111.039062 325.691406 187.316406 C 325.691406 263.59375 263.59375 325.691406 187.316406 325.691406 Z M 187.316406 50.984375 C 112.128906 50.984375 50.984375 112.128906 50.984375 187.316406 C 50.984375 262.5 112.128906 323.644531 187.316406 323.644531 C 262.5 323.644531 323.644531 262.5 323.644531 187.316406 C 323.644531 112.128906 262.5 50.984375 187.316406 50.984375 Z M 187.316406 50.984375 "
              fillOpacity="1"
              fillRule="nonzero"
            />
          </g>
          <g clipPath="url(#id2)">
            <path
              style={{maxWidth: `120px`}}
              fill="#EF5350"
              d="M 234.816406 185.753906 L 209.988281 146.480469 L 259.644531 146.480469 Z M 221.777344 206.390625 L 205.519531 160.796875 L 229.132812 179.613281 L 233.90625 187.179688 Z M 207.375 229.160156 L 202.9375 208.183594 L 212.328125 184.382812 L 220.746094 208.035156 Z M 187.316406 260.894531 L 167.382812 229.339844 L 171.757812 207.363281 L 187.285156 183.683594 L 201.417969 208.429688 L 206.21875 231.042969 Z M 161.242188 187.394531 L 170.238281 207.152344 L 166.167969 227.488281 L 153.890625 208.0625 Z M 146.324219 178.304688 L 169.144531 160.734375 L 152.886719 206.390625 L 140.730469 187.179688 Z M 164.648438 146.507812 L 155.105469 161.617188 L 145.136719 177.363281 L 145.078125 177.453125 L 139.820312 185.753906 L 114.992188 146.480469 L 164.648438 146.480469 Z M 170.085938 158.121094 L 148.691406 174.597656 L 166.683594 146.144531 L 184.308594 118.238281 Z M 186.558594 168.03125 L 171.636719 158.273438 L 186.558594 116.414062 Z M 188.078125 116.445312 L 203 158.273438 L 188.078125 168.03125 L 188.078125 116.414062 Z M 171.152344 205.511719 L 161.972656 185.355469 L 171.089844 159.730469 L 186.527344 169.824219 L 186.527344 182.011719 Z M 201.996094 206.390625 L 188.078125 182.011719 L 188.078125 169.824219 L 203.515625 159.730469 L 211.539062 182.226562 Z M 207.953125 146.113281 L 226.640625 175.691406 L 204.519531 158.089844 L 190.324219 118.210938 Z M 261.679688 145.355469 C 261.546875 145.109375 261.289062 144.957031 261.011719 144.960938 L 209.015625 144.960938 L 187.957031 111.644531 L 187.925781 111.644531 L 187.863281 111.582031 L 186.863281 111.582031 L 186.800781 111.644531 L 186.769531 111.644531 L 186.710938 111.703125 L 186.679688 111.703125 L 165.621094 144.960938 L 113.625 144.960938 C 113.203125 144.964844 112.867188 145.308594 112.875 145.730469 C 112.878906 145.863281 112.914062 145.996094 112.984375 146.113281 L 139.183594 187.574219 L 186.679688 262.75 C 186.90625 263.101562 187.375 263.203125 187.730469 262.972656 C 187.820312 262.914062 187.898438 262.839844 187.957031 262.75 L 235.453125 187.574219 L 261.648438 146.113281 C 261.792969 145.882812 261.804688 145.59375 261.679688 145.355469 "
              fillOpacity="1"
              fillRule="nonzero"
            />
          </g>
          <g fill="#000000" fillOpacity="1">
            <g transform="translate(130.492803, 294.391873)">
              <g>
                <path d="M 2.375 1.015625 L 11.484375 -20.15625 L 19.15625 -16.84375 C 21.914062 -15.65625 23.765625 -14.296875 24.703125 -12.765625 C 25.640625 -11.234375 25.71875 -9.566406 24.9375 -7.765625 C 24.488281 -6.710938 23.832031 -5.910156 22.96875 -5.359375 C 22.101562 -4.816406 20.851562 -4.554688 19.21875 -4.578125 C 20.007812 -3.960938 20.59375 -3.347656 20.96875 -2.734375 C 21.351562 -2.128906 21.59375 -1.53125 21.6875 -0.9375 C 21.78125 -0.351562 21.773438 0.210938 21.671875 0.765625 C 21.566406 1.316406 21.410156 1.835938 21.203125 2.328125 C 20.367188 4.273438 19.082031 5.429688 17.34375 5.796875 C 15.601562 6.160156 13.285156 5.71875 10.390625 4.46875 Z M 8.046875 -0.453125 L 11.890625 1.203125 C 13.179688 1.753906 14.269531 1.914062 15.15625 1.6875 C 16.039062 1.457031 16.671875 0.910156 17.046875 0.046875 C 17.316406 -0.585938 17.378906 -1.179688 17.234375 -1.734375 C 17.097656 -2.296875 16.796875 -2.804688 16.328125 -3.265625 C 15.867188 -3.722656 15.289062 -4.101562 14.59375 -4.40625 L 10.5 -6.15625 Z M 11.96875 -9.546875 L 16.0625 -7.796875 C 16.5 -7.597656 16.941406 -7.460938 17.390625 -7.390625 C 17.835938 -7.328125 18.265625 -7.332031 18.671875 -7.40625 C 19.085938 -7.488281 19.457031 -7.660156 19.78125 -7.921875 C 20.113281 -8.179688 20.378906 -8.539062 20.578125 -9 C 20.972656 -9.914062 20.925781 -10.757812 20.4375 -11.53125 C 19.957031 -12.300781 19.179688 -12.914062 18.109375 -13.375 L 14.3125 -15 Z M 11.96875 -9.546875 " />
              </g>
            </g>
          </g>
          <g fill="#000000" fillOpacity="1">
            <g transform="translate(159.93005, 305.512642)">
              <g>
                <path d="M 6.125 -22.359375 L 10.75 -21.640625 L 7.78125 -2.765625 L 17.6875 -1.21875 L 17.078125 2.671875 L 2.546875 0.40625 Z M 6.125 -22.359375 " />
              </g>
            </g>
          </g>
          <g fill="#000000" fillOpacity="1">
            <g transform="translate(187.960546, 308.989307)">
              <g>
                <path d="M 12.125 -0.984375 C 9.957031 -0.742188 8.035156 -1.007812 6.359375 -1.78125 C 4.679688 -2.5625 3.316406 -3.78125 2.265625 -5.4375 C 1.210938 -7.09375 0.554688 -9.132812 0.296875 -11.5625 C 0.0351562 -14 0.242188 -16.148438 0.921875 -18.015625 C 1.609375 -19.878906 2.691406 -21.375 4.171875 -22.5 C 5.660156 -23.625 7.472656 -24.300781 9.609375 -24.53125 C 11.722656 -24.757812 13.617188 -24.484375 15.296875 -23.703125 C 16.984375 -22.921875 18.351562 -21.691406 19.40625 -20.015625 C 20.457031 -18.335938 21.113281 -16.273438 21.375 -13.828125 C 21.632812 -11.410156 21.429688 -9.273438 20.765625 -7.421875 C 20.097656 -5.578125 19.023438 -4.097656 17.546875 -2.984375 C 16.066406 -1.878906 14.257812 -1.210938 12.125 -0.984375 Z M 11.71875 -4.78125 C 12.832031 -4.894531 13.769531 -5.257812 14.53125 -5.875 C 15.289062 -6.5 15.832031 -7.414062 16.15625 -8.625 C 16.476562 -9.832031 16.539062 -11.363281 16.34375 -13.21875 C 16.144531 -15.132812 15.753906 -16.660156 15.171875 -17.796875 C 14.585938 -18.929688 13.859375 -19.734375 12.984375 -20.203125 C 12.109375 -20.671875 11.117188 -20.847656 10.015625 -20.734375 C 8.898438 -20.609375 7.957031 -20.222656 7.1875 -19.578125 C 6.425781 -18.929688 5.882812 -17.988281 5.5625 -16.75 C 5.238281 -15.519531 5.175781 -13.953125 5.375 -12.046875 C 5.582031 -10.179688 5.972656 -8.691406 6.546875 -7.578125 C 7.117188 -6.472656 7.84375 -5.695312 8.71875 -5.25 C 9.601562 -4.8125 10.601562 -4.65625 11.71875 -4.78125 Z M 11.71875 -4.78125 " />
              </g>
            </g>
          </g>
          <g fill="#000000" fillOpacity="1">
            <g transform="translate(221.930715, 303.876985)">
              <g>
                <path d="M 11.109375 -4.3125 C 9.160156 -3.488281 7.28125 -3.21875 5.46875 -3.5 C 3.664062 -3.78125 2.03125 -4.570312 0.5625 -5.875 C -0.894531 -7.1875 -2.082031 -8.945312 -3 -11.15625 C -3.945312 -13.414062 -4.351562 -15.535156 -4.21875 -17.515625 C -4.09375 -19.503906 -3.476562 -21.25 -2.375 -22.75 C -1.269531 -24.257812 0.257812 -25.425781 2.21875 -26.25 C 3.488281 -26.78125 4.722656 -27.0625 5.921875 -27.09375 C 7.128906 -27.125 8.265625 -26.953125 9.328125 -26.578125 C 10.390625 -26.203125 11.320312 -25.664062 12.125 -24.96875 C 12.925781 -24.269531 13.539062 -23.457031 13.96875 -22.53125 L 9.453125 -20.640625 C 9.046875 -21.265625 8.535156 -21.773438 7.921875 -22.171875 C 7.304688 -22.578125 6.632812 -22.828125 5.90625 -22.921875 C 5.175781 -23.015625 4.414062 -22.894531 3.625 -22.5625 C 2.6875 -22.164062 1.9375 -21.566406 1.375 -20.765625 C 0.8125 -19.960938 0.53125 -18.941406 0.53125 -17.703125 C 0.53125 -16.460938 0.890625 -14.976562 1.609375 -13.25 C 2.191406 -11.84375 2.820312 -10.734375 3.5 -9.921875 C 4.1875 -9.109375 4.890625 -8.53125 5.609375 -8.1875 C 6.328125 -7.851562 7.046875 -7.703125 7.765625 -7.734375 C 8.492188 -7.773438 9.1875 -7.929688 9.84375 -8.203125 C 10.46875 -8.460938 10.984375 -8.800781 11.390625 -9.21875 C 11.796875 -9.644531 12.101562 -10.097656 12.3125 -10.578125 C 12.53125 -11.054688 12.660156 -11.535156 12.703125 -12.015625 C 12.742188 -12.503906 12.710938 -12.945312 12.609375 -13.34375 L 12.234375 -14.703125 L 7.84375 -12.875 L 6.59375 -15.84375 L 15.5 -19.515625 L 20.140625 -8.40625 L 17.21875 -7.1875 L 16.0625 -9.96875 C 15.90625 -9.34375 15.65625 -8.679688 15.3125 -7.984375 C 14.976562 -7.285156 14.476562 -6.613281 13.8125 -5.96875 C 13.15625 -5.332031 12.253906 -4.78125 11.109375 -4.3125 Z M 11.109375 -4.3125 " />
              </g>
            </g>
          </g>
          <g fill="#000000" fillOpacity="1">
            <g transform="translate(111.823676, 107.550458)">
              <g>
                <path d="M -0.84375 -13.078125 L 0.734375 -14.453125 L 7.578125 -6.640625 L 6.15625 -5.390625 L -2.28125 -7.515625 L 2.4375 -2.140625 L 0.875 -0.765625 L -5.96875 -8.578125 L -4.40625 -9.9375 L 3.6875 -7.90625 Z M -0.84375 -13.078125 " />
              </g>
            </g>
          </g>
          <g fill="#000000" fillOpacity="1">
            <g transform="translate(129.000778, 94.079688)">
              <g>
                <path d="M -4.421875 -9.46875 L -2.65625 -10.5625 L 2.765625 -1.703125 L 1 -0.609375 Z M -4.421875 -9.46875 " />
              </g>
            </g>
          </g>
          <g fill="#000000" fillOpacity="1">
            <g transform="translate(142.149702, 86.764242)">
              <g>
                <path d="M 5.03125 -1.875 C 4.144531 -1.507812 3.296875 -1.394531 2.484375 -1.53125 C 1.679688 -1.675781 0.953125 -2.046875 0.296875 -2.640625 C -0.347656 -3.242188 -0.875 -4.046875 -1.28125 -5.046875 C -1.6875 -6.078125 -1.851562 -7.039062 -1.78125 -7.9375 C -1.707031 -8.832031 -1.414062 -9.613281 -0.90625 -10.28125 C -0.394531 -10.945312 0.300781 -11.457031 1.1875 -11.8125 C 1.757812 -12.039062 2.316406 -12.160156 2.859375 -12.171875 C 3.410156 -12.179688 3.921875 -12.09375 4.390625 -11.90625 C 4.867188 -11.726562 5.285156 -11.476562 5.640625 -11.15625 C 6.003906 -10.84375 6.28125 -10.476562 6.46875 -10.0625 L 4.40625 -9.234375 C 4.21875 -9.523438 3.988281 -9.757812 3.71875 -9.9375 C 3.457031 -10.125 3.160156 -10.242188 2.828125 -10.296875 C 2.503906 -10.347656 2.160156 -10.300781 1.796875 -10.15625 C 1.367188 -9.988281 1.023438 -9.722656 0.765625 -9.359375 C 0.503906 -8.992188 0.367188 -8.53125 0.359375 -7.96875 C 0.347656 -7.40625 0.5 -6.726562 0.8125 -5.9375 C 1.0625 -5.3125 1.335938 -4.8125 1.640625 -4.4375 C 1.953125 -4.070312 2.269531 -3.8125 2.59375 -3.65625 C 2.914062 -3.5 3.238281 -3.421875 3.5625 -3.421875 C 3.882812 -3.429688 4.195312 -3.5 4.5 -3.625 C 4.789062 -3.738281 5.023438 -3.890625 5.203125 -4.078125 C 5.378906 -4.265625 5.519531 -4.460938 5.625 -4.671875 C 5.726562 -4.890625 5.789062 -5.109375 5.8125 -5.328125 C 5.84375 -5.546875 5.828125 -5.75 5.765625 -5.9375 L 5.609375 -6.546875 L 3.625 -5.765625 L 3.09375 -7.109375 L 7.125 -8.6875 L 9.140625 -3.65625 L 7.828125 -3.125 L 7.328125 -4.390625 C 7.242188 -4.097656 7.125 -3.796875 6.96875 -3.484375 C 6.8125 -3.179688 6.578125 -2.882812 6.265625 -2.59375 C 5.960938 -2.3125 5.550781 -2.070312 5.03125 -1.875 Z M 5.03125 -1.875 " />
              </g>
            </g>
          </g>
          <g fill="#000000" fillOpacity="1">
            <g transform="translate(162.356866, 79.803492)">
              <g>
                <path d="M 6.875 -5.796875 L 2.390625 -4.984375 L 3.203125 -0.59375 L 1.15625 -0.21875 L -0.71875 -10.4375 L 1.328125 -10.8125 L 2.078125 -6.703125 L 6.5625 -7.515625 L 5.8125 -11.625 L 7.875 -12 L 9.75 -1.78125 L 7.6875 -1.40625 Z M 6.875 -5.796875 " />
              </g>
            </g>
          </g>
          <g fill="#000000" fillOpacity="1">
            <g transform="translate(183.742673, 76.995759)">
              <g>
                <path d="M 0.328125 -8.53125 L 0.34375 -10.390625 L 8.671875 -10.328125 L 8.65625 -8.46875 L 5.578125 -8.484375 L 5.515625 0.046875 L 3.421875 0.03125 L 3.484375 -8.5 Z M 0.328125 -8.53125 " />
              </g>
            </g>
          </g>
          <g fill="#000000" fillOpacity="1">
            <g transform="translate(203.124057, 78.096831)">
              <g>
                <path d="M 3.09375 -9.984375 L 10.03125 -8.671875 L 9.703125 -6.953125 L 4.828125 -7.875 L 4.34375 -5.3125 L 8.5625 -4.515625 L 8.234375 -2.828125 L 4.015625 -3.625 L 3.21875 0.609375 L 1.15625 0.21875 Z M 3.09375 -9.984375 " />
              </g>
            </g>
          </g>
          <g fill="#000000" fillOpacity="1">
            <g transform="translate(221.941606, 82.586509)">
              <g>
                <path d="M 0.359375 0.140625 L 7.640625 -8.171875 L 9.6875 -7.359375 L 9.359375 3.671875 L 7.40625 2.90625 L 7.5 0.359375 L 4.015625 -1 L 2.328125 0.90625 Z M 5.125 -2.53125 L 7.703125 -1.53125 L 7.921875 -5.875 Z M 5.125 -2.53125 " />
              </g>
            </g>
          </g>
          <g fill="#000000" fillOpacity="1">
            <g transform="translate(241.049651, 91.226837)">
              <g>
                <path d="M 6.5 -8.1875 L 8.28125 -7.078125 L 3.71875 0.21875 L 7.546875 2.609375 L 6.609375 4.125 L 1 0.625 Z M 6.5 -8.1875 " />
              </g>
            </g>
          </g>
          <g fill="#000000" fillOpacity="1">
            <g transform="translate(256.560491, 101.99729)">
              <g>
                <path d="M 7.828125 -6.9375 L 9.390625 -5.53125 L 3.625 0.859375 L 6.984375 3.890625 L 5.796875 5.21875 L 0.875 0.78125 Z M 7.828125 -6.9375 " />
              </g>
            </g>
          </g>
        </svg>