<svg xmlns="http://www.w3.org/2000/svg" xmlns:xlink="http://www.w3.org/1999/xlink" width="500" zoomAndPan="magnify" viewBox="0 0 375 374.999991" height="500" preserveAspectRatio="xMidYMid meet" version="1.0"><defs><g/><clipPath id="id1"><path d="M 107.160156 38 L 267.660156 38 L 267.660156 256.5 L 107.160156 256.5 Z M 107.160156 38 " clip-rule="nonzero"/></clipPath></defs><g clip-path="url(#id1)"><path fill="#ff5757" d="M 265.003906 129.453125 L 227.535156 112.515625 L 227.535156 60.964844 C 227.535156 60.722656 227.535156 60.480469 227.292969 60.242188 C 227.054688 59.03125 226.328125 57.578125 225.121094 57.09375 L 189.34375 38.703125 C 188.136719 37.976562 186.6875 37.976562 185.476562 38.703125 L 147.527344 56.851562 C 147.285156 57.09375 147.042969 57.09375 146.804688 57.335938 C 145.835938 58.0625 144.871094 59.273438 144.871094 60.722656 L 144.871094 89.28125 L 109.578125 106.222656 C 109.335938 106.222656 109.335938 106.464844 109.335938 106.464844 C 107.886719 107.191406 107.160156 108.640625 107.160156 110.335938 L 107.160156 214.882812 C 107.160156 216.578125 108.128906 218.027344 109.578125 218.996094 L 185.234375 255.539062 C 185.960938 255.78125 186.445312 256.023438 187.167969 256.023438 C 187.894531 256.023438 188.378906 255.78125 189.105469 255.539062 L 264.761719 218.996094 C 266.210938 218.269531 267.179688 216.820312 267.179688 214.882812 L 267.179688 133.570312 C 267.660156 131.875 266.695312 130.179688 265.003906 129.453125 Z M 153.8125 67.984375 L 182.820312 81.777344 L 182.820312 103.558594 L 153.8125 89.523438 Z M 218.59375 112.515625 L 192.003906 126.066406 L 192.003906 80.8125 L 218.59375 67.984375 Z M 220.769531 185.359375 L 191.761719 171.078125 L 191.761719 140.585938 L 220.769531 154.625 Z M 182.820312 132.84375 C 182.820312 133.328125 182.820312 133.8125 182.820312 134.292969 L 182.820312 171.320312 L 153.8125 185.601562 L 153.8125 131.632812 L 182.820312 117.597656 Z M 153.8125 199.636719 L 182.820312 213.671875 L 182.820312 244.648438 L 153.8125 230.613281 Z M 187.410156 205.929688 L 159.613281 192.617188 L 187.410156 178.824219 L 215.210938 192.375 Z M 225.121094 146.636719 L 197.082031 133.085938 L 222.945312 120.015625 L 252.675781 133.570312 Z M 187.167969 47.65625 L 212.792969 60.722656 L 186.203125 73.550781 L 159.613281 60.964844 Z M 149.460938 97.265625 L 177.019531 110.578125 L 149.460938 123.886719 L 121.90625 110.578125 Z M 116.105469 117.597656 L 145.109375 131.632812 L 145.109375 226.015625 L 116.105469 211.980469 Z M 191.761719 213.671875 L 220.769531 199.636719 L 220.769531 230.371094 L 191.761719 244.40625 Z M 229.710938 226.015625 L 229.710938 154.382812 L 258.71875 140.585938 L 258.71875 212.222656 Z M 229.710938 226.015625 " fill-opacity="1" fill-rule="nonzero"/></g><g fill="#22201c" fill-opacity="1"><g transform="translate(73.854907, 288.724066)"><g><path d="M 8.203125 0.234375 C 6.804688 0.234375 5.539062 -0.0664062 4.40625 -0.671875 C 3.269531 -1.285156 2.378906 -2.128906 1.734375 -3.203125 C 1.085938 -4.285156 0.765625 -5.507812 0.765625 -6.875 C 0.765625 -8.238281 1.085938 -9.457031 1.734375 -10.53125 C 2.378906 -11.613281 3.269531 -12.457031 4.40625 -13.0625 C 5.539062 -13.675781 6.816406 -13.984375 8.234375 -13.984375 C 9.421875 -13.984375 10.492188 -13.773438 11.453125 -13.359375 C 12.421875 -12.941406 13.234375 -12.335938 13.890625 -11.546875 L 11.84375 -9.65625 C 10.914062 -10.738281 9.765625 -11.28125 8.390625 -11.28125 C 7.535156 -11.28125 6.773438 -11.09375 6.109375 -10.71875 C 5.441406 -10.34375 4.921875 -9.820312 4.546875 -9.15625 C 4.171875 -8.488281 3.984375 -7.726562 3.984375 -6.875 C 3.984375 -6.019531 4.171875 -5.257812 4.546875 -4.59375 C 4.921875 -3.925781 5.441406 -3.40625 6.109375 -3.03125 C 6.773438 -2.65625 7.535156 -2.46875 8.390625 -2.46875 C 9.765625 -2.46875 10.914062 -3.015625 11.84375 -4.109375 L 13.890625 -2.21875 C 13.234375 -1.414062 12.421875 -0.804688 11.453125 -0.390625 C 10.484375 0.0234375 9.398438 0.234375 8.203125 0.234375 Z M 8.203125 0.234375 "/></g></g></g><g fill="#22201c" fill-opacity="1"><g transform="translate(91.779849, 288.724066)"><g><path d="M 10.390625 0 L 7.734375 -3.828125 L 4.8125 -3.828125 L 4.8125 0 L 1.625 0 L 1.625 -13.75 L 7.578125 -13.75 C 8.796875 -13.75 9.851562 -13.546875 10.75 -13.140625 C 11.644531 -12.734375 12.332031 -12.15625 12.8125 -11.40625 C 13.300781 -10.664062 13.546875 -9.785156 13.546875 -8.765625 C 13.546875 -7.742188 13.300781 -6.863281 12.8125 -6.125 C 12.320312 -5.382812 11.625 -4.816406 10.71875 -4.421875 L 13.8125 0 Z M 10.328125 -8.765625 C 10.328125 -9.535156 10.078125 -10.125 9.578125 -10.53125 C 9.085938 -10.945312 8.363281 -11.15625 7.40625 -11.15625 L 4.8125 -11.15625 L 4.8125 -6.359375 L 7.40625 -6.359375 C 8.363281 -6.359375 9.085938 -6.566406 9.578125 -6.984375 C 10.078125 -7.410156 10.328125 -8.003906 10.328125 -8.765625 Z M 10.328125 -8.765625 "/></g></g></g><g fill="#22201c" fill-opacity="1"><g transform="translate(109.744061, 288.724066)"><g><path d="M 12.28125 -2.546875 L 12.28125 0 L 1.625 0 L 1.625 -13.75 L 12.015625 -13.75 L 12.015625 -11.1875 L 4.796875 -11.1875 L 4.796875 -8.203125 L 11.171875 -8.203125 L 11.171875 -5.734375 L 4.796875 -5.734375 L 4.796875 -2.546875 Z M 12.28125 -2.546875 "/></g></g></g><g fill="#22201c" fill-opacity="1"><g transform="translate(126.45176, 288.724066)"><g><path d="M 10.6875 -2.953125 L 4.296875 -2.953125 L 3.078125 0 L -0.171875 0 L 5.953125 -13.75 L 9.09375 -13.75 L 15.234375 0 L 11.90625 0 Z M 9.6875 -5.359375 L 7.5 -10.625 L 5.328125 -5.359375 Z M 9.6875 -5.359375 "/></g></g></g><g fill="#22201c" fill-opacity="1"><g transform="translate(145.024587, 288.724066)"><g><path d="M 4.484375 -11.15625 L 0.078125 -11.15625 L 0.078125 -13.75 L 12.0625 -13.75 L 12.0625 -11.15625 L 7.65625 -11.15625 L 7.65625 0 L 4.484375 0 Z M 4.484375 -11.15625 "/></g></g></g><g fill="#22201c" fill-opacity="1"><g transform="translate(160.691732, 288.724066)"><g><path d="M 1.625 -13.75 L 4.8125 -13.75 L 4.8125 0 L 1.625 0 Z M 1.625 -13.75 "/></g></g></g><g fill="#22201c" fill-opacity="1"><g transform="translate(170.665309, 288.724066)"><g><path d="M 14.84375 -13.75 L 8.890625 0 L 5.75 0 L -0.171875 -13.75 L 3.265625 -13.75 L 7.4375 -3.921875 L 11.6875 -13.75 Z M 14.84375 -13.75 "/></g></g></g><g fill="#22201c" fill-opacity="1"><g transform="translate(188.845484, 288.724066)"><g><path d="M 12.28125 -2.546875 L 12.28125 0 L 1.625 0 L 1.625 -13.75 L 12.015625 -13.75 L 12.015625 -11.1875 L 4.796875 -11.1875 L 4.796875 -8.203125 L 11.171875 -8.203125 L 11.171875 -5.734375 L 4.796875 -5.734375 L 4.796875 -2.546875 Z M 12.28125 -2.546875 "/></g></g></g><g fill="#22201c" fill-opacity="1"><g transform="translate(205.553178, 288.724066)"><g/></g></g><g fill="#22201c" fill-opacity="1"><g transform="translate(214.643259, 288.724066)"><g><path d="M 11.71875 -7.15625 C 12.507812 -6.90625 13.125 -6.488281 13.5625 -5.90625 C 14.007812 -5.320312 14.234375 -4.601562 14.234375 -3.75 C 14.234375 -2.539062 13.765625 -1.613281 12.828125 -0.96875 C 11.898438 -0.320312 10.535156 0 8.734375 0 L 1.625 0 L 1.625 -13.75 L 8.34375 -13.75 C 10.019531 -13.75 11.304688 -13.425781 12.203125 -12.78125 C 13.097656 -12.144531 13.546875 -11.273438 13.546875 -10.171875 C 13.546875 -9.503906 13.382812 -8.90625 13.0625 -8.375 C 12.75 -7.851562 12.300781 -7.445312 11.71875 -7.15625 Z M 4.796875 -11.359375 L 4.796875 -8.109375 L 7.953125 -8.109375 C 8.742188 -8.109375 9.335938 -8.242188 9.734375 -8.515625 C 10.140625 -8.796875 10.34375 -9.203125 10.34375 -9.734375 C 10.34375 -10.273438 10.140625 -10.679688 9.734375 -10.953125 C 9.335938 -11.222656 8.742188 -11.359375 7.953125 -11.359375 Z M 8.5 -2.390625 C 9.34375 -2.390625 9.972656 -2.523438 10.390625 -2.796875 C 10.816406 -3.078125 11.03125 -3.503906 11.03125 -4.078125 C 11.03125 -5.222656 10.1875 -5.796875 8.5 -5.796875 L 4.796875 -5.796875 L 4.796875 -2.390625 Z M 8.5 -2.390625 "/></g></g></g><g fill="#22201c" fill-opacity="1"><g transform="translate(233.196445, 288.724066)"><g><path d="M 1.625 -13.75 L 4.8125 -13.75 L 4.8125 -2.59375 L 11.703125 -2.59375 L 11.703125 0 L 1.625 0 Z M 1.625 -13.75 "/></g></g></g><g fill="#22201c" fill-opacity="1"><g transform="translate(248.588722, 288.724066)"><g><path d="M 8.28125 0.234375 C 6.851562 0.234375 5.566406 -0.0703125 4.421875 -0.6875 C 3.273438 -1.300781 2.378906 -2.144531 1.734375 -3.21875 C 1.085938 -4.300781 0.765625 -5.519531 0.765625 -6.875 C 0.765625 -8.21875 1.085938 -9.429688 1.734375 -10.515625 C 2.378906 -11.597656 3.273438 -12.445312 4.421875 -13.0625 C 5.566406 -13.675781 6.851562 -13.984375 8.28125 -13.984375 C 9.707031 -13.984375 10.988281 -13.675781 12.125 -13.0625 C 13.269531 -12.445312 14.171875 -11.597656 14.828125 -10.515625 C 15.484375 -9.429688 15.8125 -8.21875 15.8125 -6.875 C 15.8125 -5.519531 15.484375 -4.300781 14.828125 -3.21875 C 14.171875 -2.144531 13.269531 -1.300781 12.125 -0.6875 C 10.988281 -0.0703125 9.707031 0.234375 8.28125 0.234375 Z M 8.28125 -2.46875 C 9.09375 -2.46875 9.828125 -2.65625 10.484375 -3.03125 C 11.140625 -3.40625 11.65625 -3.925781 12.03125 -4.59375 C 12.40625 -5.257812 12.59375 -6.019531 12.59375 -6.875 C 12.59375 -7.726562 12.40625 -8.488281 12.03125 -9.15625 C 11.65625 -9.820312 11.140625 -10.34375 10.484375 -10.71875 C 9.828125 -11.09375 9.09375 -11.28125 8.28125 -11.28125 C 7.476562 -11.28125 6.75 -11.09375 6.09375 -10.71875 C 5.4375 -10.34375 4.921875 -9.820312 4.546875 -9.15625 C 4.171875 -8.488281 3.984375 -7.726562 3.984375 -6.875 C 3.984375 -6.019531 4.171875 -5.257812 4.546875 -4.59375 C 4.921875 -3.925781 5.4375 -3.40625 6.09375 -3.03125 C 6.75 -2.65625 7.476562 -2.46875 8.28125 -2.46875 Z M 8.28125 -2.46875 "/></g></g></g><g fill="#22201c" fill-opacity="1"><g transform="translate(268.692916, 288.724066)"><g><path d="M 8.203125 0.234375 C 6.804688 0.234375 5.539062 -0.0664062 4.40625 -0.671875 C 3.269531 -1.285156 2.378906 -2.128906 1.734375 -3.203125 C 1.085938 -4.285156 0.765625 -5.507812 0.765625 -6.875 C 0.765625 -8.238281 1.085938 -9.457031 1.734375 -10.53125 C 2.378906 -11.613281 3.269531 -12.457031 4.40625 -13.0625 C 5.539062 -13.675781 6.816406 -13.984375 8.234375 -13.984375 C 9.421875 -13.984375 10.492188 -13.773438 11.453125 -13.359375 C 12.421875 -12.941406 13.234375 -12.335938 13.890625 -11.546875 L 11.84375 -9.65625 C 10.914062 -10.738281 9.765625 -11.28125 8.390625 -11.28125 C 7.535156 -11.28125 6.773438 -11.09375 6.109375 -10.71875 C 5.441406 -10.34375 4.921875 -9.820312 4.546875 -9.15625 C 4.171875 -8.488281 3.984375 -7.726562 3.984375 -6.875 C 3.984375 -6.019531 4.171875 -5.257812 4.546875 -4.59375 C 4.921875 -3.925781 5.441406 -3.40625 6.109375 -3.03125 C 6.773438 -2.65625 7.535156 -2.46875 8.390625 -2.46875 C 9.765625 -2.46875 10.914062 -3.015625 11.84375 -4.109375 L 13.890625 -2.21875 C 13.234375 -1.414062 12.421875 -0.804688 11.453125 -0.390625 C 10.484375 0.0234375 9.398438 0.234375 8.203125 0.234375 Z M 8.203125 0.234375 "/></g></g></g><g fill="#22201c" fill-opacity="1"><g transform="translate(286.617865, 288.724066)"><g><path d="M 6.640625 -5.40625 L 4.796875 -3.46875 L 4.796875 0 L 1.625 0 L 1.625 -13.75 L 4.796875 -13.75 L 4.796875 -7.328125 L 10.875 -13.75 L 14.421875 -13.75 L 8.71875 -7.625 L 14.75 0 L 11.03125 0 Z M 6.640625 -5.40625 "/></g></g></g><g fill="#22201c" fill-opacity="1"><g transform="translate(105.510382, 318.891279)"><g><path d="M 7.765625 -5.046875 C 8.410156 -4.910156 8.90625 -4.632812 9.25 -4.21875 C 9.601562 -3.800781 9.78125 -3.269531 9.78125 -2.625 C 9.78125 -1.78125 9.46875 -1.128906 8.84375 -0.671875 C 8.226562 -0.222656 7.316406 0 6.109375 0 L 1.59375 0 L 1.59375 -9.796875 L 5.828125 -9.796875 C 6.921875 -9.796875 7.765625 -9.578125 8.359375 -9.140625 C 8.960938 -8.703125 9.265625 -8.082031 9.265625 -7.28125 C 9.265625 -6.738281 9.128906 -6.273438 8.859375 -5.890625 C 8.597656 -5.515625 8.234375 -5.234375 7.765625 -5.046875 Z M 2.625 -8.953125 L 2.625 -5.390625 L 5.75 -5.390625 C 6.539062 -5.390625 7.148438 -5.539062 7.578125 -5.84375 C 8.015625 -6.144531 8.234375 -6.585938 8.234375 -7.171875 C 8.234375 -7.742188 8.015625 -8.179688 7.578125 -8.484375 C 7.148438 -8.796875 6.539062 -8.953125 5.75 -8.953125 Z M 6.09375 -0.859375 C 6.96875 -0.859375 7.628906 -1.003906 8.078125 -1.296875 C 8.523438 -1.597656 8.75 -2.066406 8.75 -2.703125 C 8.75 -3.921875 7.863281 -4.53125 6.09375 -4.53125 L 2.625 -4.53125 L 2.625 -0.859375 Z M 6.09375 -0.859375 "/></g></g></g><g fill="#22201c" fill-opacity="1"><g transform="translate(116.66249, 318.891279)"><g><path d="M 1.59375 -9.796875 L 2.625 -9.796875 L 2.625 -0.890625 L 8.125 -0.890625 L 8.125 0 L 1.59375 0 Z M 1.59375 -9.796875 "/></g></g></g><g fill="#22201c" fill-opacity="1"><g transform="translate(125.50589, 318.891279)"><g><path d="M 5.875 0.078125 C 4.90625 0.078125 4.023438 -0.132812 3.234375 -0.5625 C 2.453125 -1 1.835938 -1.59375 1.390625 -2.34375 C 0.953125 -3.101562 0.734375 -3.957031 0.734375 -4.90625 C 0.734375 -5.84375 0.953125 -6.6875 1.390625 -7.4375 C 1.835938 -8.195312 2.453125 -8.796875 3.234375 -9.234375 C 4.023438 -9.671875 4.90625 -9.890625 5.875 -9.890625 C 6.851562 -9.890625 7.726562 -9.671875 8.5 -9.234375 C 9.28125 -8.804688 9.894531 -8.210938 10.34375 -7.453125 C 10.789062 -6.691406 11.015625 -5.84375 11.015625 -4.90625 C 11.015625 -3.957031 10.789062 -3.101562 10.34375 -2.34375 C 9.894531 -1.582031 9.28125 -0.988281 8.5 -0.5625 C 7.726562 -0.132812 6.851562 0.078125 5.875 0.078125 Z M 5.875 -0.84375 C 6.65625 -0.84375 7.359375 -1.015625 7.984375 -1.359375 C 8.609375 -1.710938 9.097656 -2.195312 9.453125 -2.8125 C 9.804688 -3.4375 9.984375 -4.132812 9.984375 -4.90625 C 9.984375 -5.664062 9.804688 -6.351562 9.453125 -6.96875 C 9.097656 -7.59375 8.609375 -8.078125 7.984375 -8.421875 C 7.359375 -8.773438 6.65625 -8.953125 5.875 -8.953125 C 5.101562 -8.953125 4.398438 -8.773438 3.765625 -8.421875 C 3.140625 -8.078125 2.644531 -7.59375 2.28125 -6.96875 C 1.925781 -6.351562 1.75 -5.664062 1.75 -4.90625 C 1.75 -4.132812 1.925781 -3.4375 2.28125 -2.8125 C 2.644531 -2.195312 3.140625 -1.710938 3.765625 -1.359375 C 4.398438 -1.015625 5.101562 -0.84375 5.875 -0.84375 Z M 5.875 -0.84375 "/></g></g></g><g fill="#22201c" fill-opacity="1"><g transform="translate(137.847338, 318.891279)"><g><path d="M 8.5 -4.90625 L 9.484375 -4.90625 L 9.484375 -1.15625 C 9.035156 -0.757812 8.5 -0.453125 7.875 -0.234375 C 7.25 -0.0234375 6.585938 0.078125 5.890625 0.078125 C 4.910156 0.078125 4.03125 -0.132812 3.25 -0.5625 C 2.46875 -0.988281 1.851562 -1.582031 1.40625 -2.34375 C 0.957031 -3.101562 0.734375 -3.957031 0.734375 -4.90625 C 0.734375 -5.84375 0.957031 -6.691406 1.40625 -7.453125 C 1.851562 -8.210938 2.46875 -8.804688 3.25 -9.234375 C 4.03125 -9.671875 4.914062 -9.890625 5.90625 -9.890625 C 6.65625 -9.890625 7.34375 -9.769531 7.96875 -9.53125 C 8.59375 -9.289062 9.117188 -8.9375 9.546875 -8.46875 L 8.90625 -7.8125 C 8.125 -8.570312 7.140625 -8.953125 5.953125 -8.953125 C 5.160156 -8.953125 4.441406 -8.773438 3.796875 -8.421875 C 3.160156 -8.078125 2.660156 -7.59375 2.296875 -6.96875 C 1.929688 -6.351562 1.75 -5.664062 1.75 -4.90625 C 1.75 -4.132812 1.929688 -3.441406 2.296875 -2.828125 C 2.660156 -2.210938 3.160156 -1.726562 3.796875 -1.375 C 4.429688 -1.019531 5.144531 -0.84375 5.9375 -0.84375 C 6.945312 -0.84375 7.800781 -1.09375 8.5 -1.59375 Z M 8.5 -4.90625 "/></g></g></g><g fill="#22201c" fill-opacity="1"><g transform="translate(149.265291, 318.891279)"><g/></g></g><g fill="#22201c" fill-opacity="1"><g transform="translate(153.533238, 318.891279)"><g><path d="M 2.625 -8.90625 L 2.625 -5.046875 L 7.703125 -5.046875 L 7.703125 -4.15625 L 2.625 -4.15625 L 2.625 0 L 1.59375 0 L 1.59375 -9.796875 L 8.3125 -9.796875 L 8.3125 -8.90625 Z M 2.625 -8.90625 "/></g></g></g><g fill="#22201c" fill-opacity="1"><g transform="translate(162.992283, 318.891279)"><g><path d="M 5.875 0.078125 C 4.90625 0.078125 4.023438 -0.132812 3.234375 -0.5625 C 2.453125 -1 1.835938 -1.59375 1.390625 -2.34375 C 0.953125 -3.101562 0.734375 -3.957031 0.734375 -4.90625 C 0.734375 -5.84375 0.953125 -6.6875 1.390625 -7.4375 C 1.835938 -8.195312 2.453125 -8.796875 3.234375 -9.234375 C 4.023438 -9.671875 4.90625 -9.890625 5.875 -9.890625 C 6.851562 -9.890625 7.726562 -9.671875 8.5 -9.234375 C 9.28125 -8.804688 9.894531 -8.210938 10.34375 -7.453125 C 10.789062 -6.691406 11.015625 -5.84375 11.015625 -4.90625 C 11.015625 -3.957031 10.789062 -3.101562 10.34375 -2.34375 C 9.894531 -1.582031 9.28125 -0.988281 8.5 -0.5625 C 7.726562 -0.132812 6.851562 0.078125 5.875 0.078125 Z M 5.875 -0.84375 C 6.65625 -0.84375 7.359375 -1.015625 7.984375 -1.359375 C 8.609375 -1.710938 9.097656 -2.195312 9.453125 -2.8125 C 9.804688 -3.4375 9.984375 -4.132812 9.984375 -4.90625 C 9.984375 -5.664062 9.804688 -6.351562 9.453125 -6.96875 C 9.097656 -7.59375 8.609375 -8.078125 7.984375 -8.421875 C 7.359375 -8.773438 6.65625 -8.953125 5.875 -8.953125 C 5.101562 -8.953125 4.398438 -8.773438 3.765625 -8.421875 C 3.140625 -8.078125 2.644531 -7.59375 2.28125 -6.96875 C 1.925781 -6.351562 1.75 -5.664062 1.75 -4.90625 C 1.75 -4.132812 1.925781 -3.4375 2.28125 -2.8125 C 2.644531 -2.195312 3.140625 -1.710938 3.765625 -1.359375 C 4.398438 -1.015625 5.101562 -0.84375 5.875 -0.84375 Z M 5.875 -0.84375 "/></g></g></g><g fill="#22201c" fill-opacity="1"><g transform="translate(175.333728, 318.891279)"><g><path d="M 8.28125 0 L 6.046875 -3.15625 C 5.796875 -3.125 5.535156 -3.109375 5.265625 -3.109375 L 2.625 -3.109375 L 2.625 0 L 1.59375 0 L 1.59375 -9.796875 L 5.265625 -9.796875 C 6.515625 -9.796875 7.492188 -9.5 8.203125 -8.90625 C 8.910156 -8.3125 9.265625 -7.488281 9.265625 -6.4375 C 9.265625 -5.675781 9.070312 -5.03125 8.6875 -4.5 C 8.300781 -3.96875 7.75 -3.585938 7.03125 -3.359375 L 9.421875 0 Z M 5.234375 -3.984375 C 6.203125 -3.984375 6.941406 -4.195312 7.453125 -4.625 C 7.972656 -5.0625 8.234375 -5.664062 8.234375 -6.4375 C 8.234375 -7.226562 7.972656 -7.835938 7.453125 -8.265625 C 6.941406 -8.691406 6.203125 -8.90625 5.234375 -8.90625 L 2.625 -8.90625 L 2.625 -3.984375 Z M 5.234375 -3.984375 "/></g></g></g><g fill="#22201c" fill-opacity="1"><g transform="translate(186.052069, 318.891279)"><g/></g></g><g fill="#22201c" fill-opacity="1"><g transform="translate(190.320017, 318.891279)"><g><path d="M 5.859375 0.078125 C 4.878906 0.078125 4 -0.132812 3.21875 -0.5625 C 2.445312 -0.988281 1.835938 -1.582031 1.390625 -2.34375 C 0.953125 -3.101562 0.734375 -3.957031 0.734375 -4.90625 C 0.734375 -5.84375 0.953125 -6.691406 1.390625 -7.453125 C 1.835938 -8.210938 2.453125 -8.804688 3.234375 -9.234375 C 4.015625 -9.671875 4.890625 -9.890625 5.859375 -9.890625 C 6.585938 -9.890625 7.257812 -9.765625 7.875 -9.515625 C 8.5 -9.273438 9.023438 -8.921875 9.453125 -8.453125 L 8.796875 -7.796875 C 8.023438 -8.566406 7.054688 -8.953125 5.890625 -8.953125 C 5.117188 -8.953125 4.414062 -8.773438 3.78125 -8.421875 C 3.144531 -8.066406 2.644531 -7.582031 2.28125 -6.96875 C 1.925781 -6.351562 1.75 -5.664062 1.75 -4.90625 C 1.75 -4.132812 1.925781 -3.441406 2.28125 -2.828125 C 2.644531 -2.210938 3.144531 -1.726562 3.78125 -1.375 C 4.414062 -1.019531 5.117188 -0.84375 5.890625 -0.84375 C 7.066406 -0.84375 8.035156 -1.234375 8.796875 -2.015625 L 9.453125 -1.359375 C 9.023438 -0.890625 8.5 -0.53125 7.875 -0.28125 C 7.25 -0.0390625 6.578125 0.078125 5.859375 0.078125 Z M 5.859375 0.078125 "/></g></g></g><g fill="#22201c" fill-opacity="1"><g transform="translate(200.982397, 318.891279)"><g><path d="M 8.28125 0 L 6.046875 -3.15625 C 5.796875 -3.125 5.535156 -3.109375 5.265625 -3.109375 L 2.625 -3.109375 L 2.625 0 L 1.59375 0 L 1.59375 -9.796875 L 5.265625 -9.796875 C 6.515625 -9.796875 7.492188 -9.5 8.203125 -8.90625 C 8.910156 -8.3125 9.265625 -7.488281 9.265625 -6.4375 C 9.265625 -5.675781 9.070312 -5.03125 8.6875 -4.5 C 8.300781 -3.96875 7.75 -3.585938 7.03125 -3.359375 L 9.421875 0 Z M 5.234375 -3.984375 C 6.203125 -3.984375 6.941406 -4.195312 7.453125 -4.625 C 7.972656 -5.0625 8.234375 -5.664062 8.234375 -6.4375 C 8.234375 -7.226562 7.972656 -7.835938 7.453125 -8.265625 C 6.941406 -8.691406 6.203125 -8.90625 5.234375 -8.90625 L 2.625 -8.90625 L 2.625 -3.984375 Z M 5.234375 -3.984375 "/></g></g></g><g fill="#22201c" fill-opacity="1"><g transform="translate(211.700744, 318.891279)"><g><path d="M 8.53125 -0.890625 L 8.53125 0 L 1.59375 0 L 1.59375 -9.796875 L 8.3125 -9.796875 L 8.3125 -8.90625 L 2.625 -8.90625 L 2.625 -5.421875 L 7.703125 -5.421875 L 7.703125 -4.53125 L 2.625 -4.53125 L 2.625 -0.890625 Z M 8.53125 -0.890625 "/></g></g></g><g fill="#22201c" fill-opacity="1"><g transform="translate(221.663512, 318.891279)"><g><path d="M 7.734375 -2.625 L 2.28125 -2.625 L 1.109375 0 L 0.03125 0 L 4.515625 -9.796875 L 5.53125 -9.796875 L 10.015625 0 L 8.921875 0 Z M 7.359375 -3.453125 L 5.015625 -8.71875 L 2.65625 -3.453125 Z M 7.359375 -3.453125 "/></g></g></g><g fill="#22201c" fill-opacity="1"><g transform="translate(232.29791, 318.891279)"><g><path d="M 3.5 -8.90625 L 0.0625 -8.90625 L 0.0625 -9.796875 L 7.984375 -9.796875 L 7.984375 -8.90625 L 4.53125 -8.90625 L 4.53125 0 L 3.5 0 Z M 3.5 -8.90625 "/></g></g></g><g fill="#22201c" fill-opacity="1"><g transform="translate(240.931424, 318.891279)"><g><path d="M 1.59375 -9.796875 L 2.625 -9.796875 L 2.625 0 L 1.59375 0 Z M 1.59375 -9.796875 "/></g></g></g><g fill="#22201c" fill-opacity="1"><g transform="translate(245.759057, 318.891279)"><g><path d="M 5.875 0.078125 C 4.90625 0.078125 4.023438 -0.132812 3.234375 -0.5625 C 2.453125 -1 1.835938 -1.59375 1.390625 -2.34375 C 0.953125 -3.101562 0.734375 -3.957031 0.734375 -4.90625 C 0.734375 -5.84375 0.953125 -6.6875 1.390625 -7.4375 C 1.835938 -8.195312 2.453125 -8.796875 3.234375 -9.234375 C 4.023438 -9.671875 4.90625 -9.890625 5.875 -9.890625 C 6.851562 -9.890625 7.726562 -9.671875 8.5 -9.234375 C 9.28125 -8.804688 9.894531 -8.210938 10.34375 -7.453125 C 10.789062 -6.691406 11.015625 -5.84375 11.015625 -4.90625 C 11.015625 -3.957031 10.789062 -3.101562 10.34375 -2.34375 C 9.894531 -1.582031 9.28125 -0.988281 8.5 -0.5625 C 7.726562 -0.132812 6.851562 0.078125 5.875 0.078125 Z M 5.875 -0.84375 C 6.65625 -0.84375 7.359375 -1.015625 7.984375 -1.359375 C 8.609375 -1.710938 9.097656 -2.195312 9.453125 -2.8125 C 9.804688 -3.4375 9.984375 -4.132812 9.984375 -4.90625 C 9.984375 -5.664062 9.804688 -6.351562 9.453125 -6.96875 C 9.097656 -7.59375 8.609375 -8.078125 7.984375 -8.421875 C 7.359375 -8.773438 6.65625 -8.953125 5.875 -8.953125 C 5.101562 -8.953125 4.398438 -8.773438 3.765625 -8.421875 C 3.140625 -8.078125 2.644531 -7.59375 2.28125 -6.96875 C 1.925781 -6.351562 1.75 -5.664062 1.75 -4.90625 C 1.75 -4.132812 1.925781 -3.4375 2.28125 -2.8125 C 2.644531 -2.195312 3.140625 -1.710938 3.765625 -1.359375 C 4.398438 -1.015625 5.101562 -0.84375 5.875 -0.84375 Z M 5.875 -0.84375 "/></g></g></g><g fill="#22201c" fill-opacity="1"><g transform="translate(258.100502, 318.891279)"><g><path d="M 9.78125 -9.796875 L 9.78125 0 L 8.9375 0 L 2.625 -7.953125 L 2.625 0 L 1.59375 0 L 1.59375 -9.796875 L 2.453125 -9.796875 L 8.765625 -1.84375 L 8.765625 -9.796875 Z M 9.78125 -9.796875 "/></g></g></g></svg>